<mxfile host="app.diagrams.net" agent="Mozilla/5.0 (Windows NT 10.0; Win64; x64) AppleWebKit/537.36 (KHTML, like Gecko) Chrome/137.0.0.0 Safari/537.36" version="27.1.4">
  <diagram name="Page-1" id="UUririKufb1tcpx4QfYH">
    <mxGraphModel dx="2084" dy="1192" grid="1" gridSize="10" guides="1" tooltips="1" connect="1" arrows="1" fold="1" page="1" pageScale="1" pageWidth="1100" pageHeight="1700" math="0" shadow="0">
      <root>
        <mxCell id="0" />
        <mxCell id="1" parent="0" />
        <mxCell id="oB86rz4Y4QlZCWIwaVJf-244" value="Subscription" style="shape=table;startSize=25;container=1;collapsible=0;childLayout=tableLayout;fixedRows=1;rowLines=1;fontStyle=1;align=center;resizeLast=1;" vertex="1" parent="1">
          <mxGeometry x="1273" y="20" width="244" height="172" as="geometry" />
        </mxCell>
        <mxCell id="oB86rz4Y4QlZCWIwaVJf-245" style="shape=tableRow;horizontal=0;startSize=0;swimlaneHead=0;swimlaneBody=0;fillColor=none;collapsible=0;dropTarget=0;points=[[0,0.5],[1,0.5]];portConstraint=eastwest;top=0;left=0;right=0;bottom=0;" vertex="1" parent="oB86rz4Y4QlZCWIwaVJf-244">
          <mxGeometry y="25" width="244" height="49" as="geometry" />
        </mxCell>
        <mxCell id="oB86rz4Y4QlZCWIwaVJf-246" value="int" style="shape=partialRectangle;connectable=0;fillColor=none;top=0;left=0;bottom=0;right=0;align=left;spacingLeft=2;overflow=hidden;fontSize=11;" vertex="1" parent="oB86rz4Y4QlZCWIwaVJf-245">
          <mxGeometry width="54" height="49" as="geometry">
            <mxRectangle width="54" height="49" as="alternateBounds" />
          </mxGeometry>
        </mxCell>
        <mxCell id="oB86rz4Y4QlZCWIwaVJf-247" value="id" style="shape=partialRectangle;connectable=0;fillColor=none;top=0;left=0;bottom=0;right=0;align=left;spacingLeft=2;overflow=hidden;fontSize=11;" vertex="1" parent="oB86rz4Y4QlZCWIwaVJf-245">
          <mxGeometry x="54" width="168" height="49" as="geometry">
            <mxRectangle width="168" height="49" as="alternateBounds" />
          </mxGeometry>
        </mxCell>
        <mxCell id="oB86rz4Y4QlZCWIwaVJf-248" value="PK" style="shape=partialRectangle;connectable=0;fillColor=none;top=0;left=0;bottom=0;right=0;align=left;spacingLeft=2;overflow=hidden;fontSize=11;" vertex="1" parent="oB86rz4Y4QlZCWIwaVJf-245">
          <mxGeometry x="222" width="22" height="49" as="geometry">
            <mxRectangle width="22" height="49" as="alternateBounds" />
          </mxGeometry>
        </mxCell>
        <mxCell id="oB86rz4Y4QlZCWIwaVJf-249" style="shape=tableRow;horizontal=0;startSize=0;swimlaneHead=0;swimlaneBody=0;fillColor=none;collapsible=0;dropTarget=0;points=[[0,0.5],[1,0.5]];portConstraint=eastwest;top=0;left=0;right=0;bottom=0;" vertex="1" parent="oB86rz4Y4QlZCWIwaVJf-244">
          <mxGeometry y="74" width="244" height="49" as="geometry" />
        </mxCell>
        <mxCell id="oB86rz4Y4QlZCWIwaVJf-250" value="string" style="shape=partialRectangle;connectable=0;fillColor=none;top=0;left=0;bottom=0;right=0;align=left;spacingLeft=2;overflow=hidden;fontSize=11;" vertex="1" parent="oB86rz4Y4QlZCWIwaVJf-249">
          <mxGeometry width="54" height="49" as="geometry">
            <mxRectangle width="54" height="49" as="alternateBounds" />
          </mxGeometry>
        </mxCell>
        <mxCell id="oB86rz4Y4QlZCWIwaVJf-251" value="plan_type" style="shape=partialRectangle;connectable=0;fillColor=none;top=0;left=0;bottom=0;right=0;align=left;spacingLeft=2;overflow=hidden;fontSize=11;" vertex="1" parent="oB86rz4Y4QlZCWIwaVJf-249">
          <mxGeometry x="54" width="168" height="49" as="geometry">
            <mxRectangle width="168" height="49" as="alternateBounds" />
          </mxGeometry>
        </mxCell>
        <mxCell id="oB86rz4Y4QlZCWIwaVJf-252" value="" style="shape=partialRectangle;connectable=0;fillColor=none;top=0;left=0;bottom=0;right=0;align=left;spacingLeft=2;overflow=hidden;fontSize=11;" vertex="1" parent="oB86rz4Y4QlZCWIwaVJf-249">
          <mxGeometry x="222" width="22" height="49" as="geometry">
            <mxRectangle width="22" height="49" as="alternateBounds" />
          </mxGeometry>
        </mxCell>
        <mxCell id="oB86rz4Y4QlZCWIwaVJf-253" style="shape=tableRow;horizontal=0;startSize=0;swimlaneHead=0;swimlaneBody=0;fillColor=none;collapsible=0;dropTarget=0;points=[[0,0.5],[1,0.5]];portConstraint=eastwest;top=0;left=0;right=0;bottom=0;" vertex="1" parent="oB86rz4Y4QlZCWIwaVJf-244">
          <mxGeometry y="123" width="244" height="49" as="geometry" />
        </mxCell>
        <mxCell id="oB86rz4Y4QlZCWIwaVJf-254" value="timestamp" style="shape=partialRectangle;connectable=0;fillColor=none;top=0;left=0;bottom=0;right=0;align=left;spacingLeft=2;overflow=hidden;fontSize=11;" vertex="1" parent="oB86rz4Y4QlZCWIwaVJf-253">
          <mxGeometry width="54" height="49" as="geometry">
            <mxRectangle width="54" height="49" as="alternateBounds" />
          </mxGeometry>
        </mxCell>
        <mxCell id="oB86rz4Y4QlZCWIwaVJf-255" value="expires_at" style="shape=partialRectangle;connectable=0;fillColor=none;top=0;left=0;bottom=0;right=0;align=left;spacingLeft=2;overflow=hidden;fontSize=11;" vertex="1" parent="oB86rz4Y4QlZCWIwaVJf-253">
          <mxGeometry x="54" width="168" height="49" as="geometry">
            <mxRectangle width="168" height="49" as="alternateBounds" />
          </mxGeometry>
        </mxCell>
        <mxCell id="oB86rz4Y4QlZCWIwaVJf-256" value="" style="shape=partialRectangle;connectable=0;fillColor=none;top=0;left=0;bottom=0;right=0;align=left;spacingLeft=2;overflow=hidden;fontSize=11;" vertex="1" parent="oB86rz4Y4QlZCWIwaVJf-253">
          <mxGeometry x="222" width="22" height="49" as="geometry">
            <mxRectangle width="22" height="49" as="alternateBounds" />
          </mxGeometry>
        </mxCell>
        <mxCell id="oB86rz4Y4QlZCWIwaVJf-257" value="Enterprise" style="shape=table;startSize=25;container=1;collapsible=0;childLayout=tableLayout;fixedRows=1;rowLines=1;fontStyle=1;align=center;resizeLast=1;" vertex="1" parent="1">
          <mxGeometry x="1275" y="293" width="242" height="172" as="geometry" />
        </mxCell>
        <mxCell id="oB86rz4Y4QlZCWIwaVJf-258" style="shape=tableRow;horizontal=0;startSize=0;swimlaneHead=0;swimlaneBody=0;fillColor=none;collapsible=0;dropTarget=0;points=[[0,0.5],[1,0.5]];portConstraint=eastwest;top=0;left=0;right=0;bottom=0;" vertex="1" parent="oB86rz4Y4QlZCWIwaVJf-257">
          <mxGeometry y="25" width="242" height="49" as="geometry" />
        </mxCell>
        <mxCell id="oB86rz4Y4QlZCWIwaVJf-259" value="int" style="shape=partialRectangle;connectable=0;fillColor=none;top=0;left=0;bottom=0;right=0;align=left;spacingLeft=2;overflow=hidden;fontSize=11;" vertex="1" parent="oB86rz4Y4QlZCWIwaVJf-258">
          <mxGeometry width="36" height="49" as="geometry">
            <mxRectangle width="36" height="49" as="alternateBounds" />
          </mxGeometry>
        </mxCell>
        <mxCell id="oB86rz4Y4QlZCWIwaVJf-260" value="id" style="shape=partialRectangle;connectable=0;fillColor=none;top=0;left=0;bottom=0;right=0;align=left;spacingLeft=2;overflow=hidden;fontSize=11;" vertex="1" parent="oB86rz4Y4QlZCWIwaVJf-258">
          <mxGeometry x="36" width="184" height="49" as="geometry">
            <mxRectangle width="184" height="49" as="alternateBounds" />
          </mxGeometry>
        </mxCell>
        <mxCell id="oB86rz4Y4QlZCWIwaVJf-261" value="PK" style="shape=partialRectangle;connectable=0;fillColor=none;top=0;left=0;bottom=0;right=0;align=left;spacingLeft=2;overflow=hidden;fontSize=11;" vertex="1" parent="oB86rz4Y4QlZCWIwaVJf-258">
          <mxGeometry x="220" width="22" height="49" as="geometry">
            <mxRectangle width="22" height="49" as="alternateBounds" />
          </mxGeometry>
        </mxCell>
        <mxCell id="oB86rz4Y4QlZCWIwaVJf-262" style="shape=tableRow;horizontal=0;startSize=0;swimlaneHead=0;swimlaneBody=0;fillColor=none;collapsible=0;dropTarget=0;points=[[0,0.5],[1,0.5]];portConstraint=eastwest;top=0;left=0;right=0;bottom=0;" vertex="1" parent="oB86rz4Y4QlZCWIwaVJf-257">
          <mxGeometry y="74" width="242" height="49" as="geometry" />
        </mxCell>
        <mxCell id="oB86rz4Y4QlZCWIwaVJf-263" value="string" style="shape=partialRectangle;connectable=0;fillColor=none;top=0;left=0;bottom=0;right=0;align=left;spacingLeft=2;overflow=hidden;fontSize=11;" vertex="1" parent="oB86rz4Y4QlZCWIwaVJf-262">
          <mxGeometry width="36" height="49" as="geometry">
            <mxRectangle width="36" height="49" as="alternateBounds" />
          </mxGeometry>
        </mxCell>
        <mxCell id="oB86rz4Y4QlZCWIwaVJf-264" value="name" style="shape=partialRectangle;connectable=0;fillColor=none;top=0;left=0;bottom=0;right=0;align=left;spacingLeft=2;overflow=hidden;fontSize=11;" vertex="1" parent="oB86rz4Y4QlZCWIwaVJf-262">
          <mxGeometry x="36" width="184" height="49" as="geometry">
            <mxRectangle width="184" height="49" as="alternateBounds" />
          </mxGeometry>
        </mxCell>
        <mxCell id="oB86rz4Y4QlZCWIwaVJf-265" value="" style="shape=partialRectangle;connectable=0;fillColor=none;top=0;left=0;bottom=0;right=0;align=left;spacingLeft=2;overflow=hidden;fontSize=11;" vertex="1" parent="oB86rz4Y4QlZCWIwaVJf-262">
          <mxGeometry x="220" width="22" height="49" as="geometry">
            <mxRectangle width="22" height="49" as="alternateBounds" />
          </mxGeometry>
        </mxCell>
        <mxCell id="oB86rz4Y4QlZCWIwaVJf-266" style="shape=tableRow;horizontal=0;startSize=0;swimlaneHead=0;swimlaneBody=0;fillColor=none;collapsible=0;dropTarget=0;points=[[0,0.5],[1,0.5]];portConstraint=eastwest;top=0;left=0;right=0;bottom=0;" vertex="1" parent="oB86rz4Y4QlZCWIwaVJf-257">
          <mxGeometry y="123" width="242" height="49" as="geometry" />
        </mxCell>
        <mxCell id="oB86rz4Y4QlZCWIwaVJf-267" value="int" style="shape=partialRectangle;connectable=0;fillColor=none;top=0;left=0;bottom=0;right=0;align=left;spacingLeft=2;overflow=hidden;fontSize=11;" vertex="1" parent="oB86rz4Y4QlZCWIwaVJf-266">
          <mxGeometry width="36" height="49" as="geometry">
            <mxRectangle width="36" height="49" as="alternateBounds" />
          </mxGeometry>
        </mxCell>
        <mxCell id="oB86rz4Y4QlZCWIwaVJf-268" value="subscription_id" style="shape=partialRectangle;connectable=0;fillColor=none;top=0;left=0;bottom=0;right=0;align=left;spacingLeft=2;overflow=hidden;fontSize=11;" vertex="1" parent="oB86rz4Y4QlZCWIwaVJf-266">
          <mxGeometry x="36" width="184" height="49" as="geometry">
            <mxRectangle width="184" height="49" as="alternateBounds" />
          </mxGeometry>
        </mxCell>
        <mxCell id="oB86rz4Y4QlZCWIwaVJf-269" value="FK" style="shape=partialRectangle;connectable=0;fillColor=none;top=0;left=0;bottom=0;right=0;align=left;spacingLeft=2;overflow=hidden;fontSize=11;" vertex="1" parent="oB86rz4Y4QlZCWIwaVJf-266">
          <mxGeometry x="220" width="22" height="49" as="geometry">
            <mxRectangle width="22" height="49" as="alternateBounds" />
          </mxGeometry>
        </mxCell>
        <mxCell id="oB86rz4Y4QlZCWIwaVJf-270" value="EnterpriseUser" style="shape=table;startSize=25;container=1;collapsible=0;childLayout=tableLayout;fixedRows=1;rowLines=1;fontStyle=1;align=center;resizeLast=1;" vertex="1" parent="1">
          <mxGeometry x="808" y="600" width="229" height="214" as="geometry" />
        </mxCell>
        <mxCell id="oB86rz4Y4QlZCWIwaVJf-271" style="shape=tableRow;horizontal=0;startSize=0;swimlaneHead=0;swimlaneBody=0;fillColor=none;collapsible=0;dropTarget=0;points=[[0,0.5],[1,0.5]];portConstraint=eastwest;top=0;left=0;right=0;bottom=0;" vertex="1" parent="oB86rz4Y4QlZCWIwaVJf-270">
          <mxGeometry y="25" width="229" height="47" as="geometry" />
        </mxCell>
        <mxCell id="oB86rz4Y4QlZCWIwaVJf-272" value="int" style="shape=partialRectangle;connectable=0;fillColor=none;top=0;left=0;bottom=0;right=0;align=left;spacingLeft=2;overflow=hidden;fontSize=11;" vertex="1" parent="oB86rz4Y4QlZCWIwaVJf-271">
          <mxGeometry width="36" height="47" as="geometry">
            <mxRectangle width="36" height="47" as="alternateBounds" />
          </mxGeometry>
        </mxCell>
        <mxCell id="oB86rz4Y4QlZCWIwaVJf-273" value="id" style="shape=partialRectangle;connectable=0;fillColor=none;top=0;left=0;bottom=0;right=0;align=left;spacingLeft=2;overflow=hidden;fontSize=11;" vertex="1" parent="oB86rz4Y4QlZCWIwaVJf-271">
          <mxGeometry x="36" width="171" height="47" as="geometry">
            <mxRectangle width="171" height="47" as="alternateBounds" />
          </mxGeometry>
        </mxCell>
        <mxCell id="oB86rz4Y4QlZCWIwaVJf-274" value="PK" style="shape=partialRectangle;connectable=0;fillColor=none;top=0;left=0;bottom=0;right=0;align=left;spacingLeft=2;overflow=hidden;fontSize=11;" vertex="1" parent="oB86rz4Y4QlZCWIwaVJf-271">
          <mxGeometry x="207" width="22" height="47" as="geometry">
            <mxRectangle width="22" height="47" as="alternateBounds" />
          </mxGeometry>
        </mxCell>
        <mxCell id="oB86rz4Y4QlZCWIwaVJf-275" style="shape=tableRow;horizontal=0;startSize=0;swimlaneHead=0;swimlaneBody=0;fillColor=none;collapsible=0;dropTarget=0;points=[[0,0.5],[1,0.5]];portConstraint=eastwest;top=0;left=0;right=0;bottom=0;" vertex="1" parent="oB86rz4Y4QlZCWIwaVJf-270">
          <mxGeometry y="72" width="229" height="47" as="geometry" />
        </mxCell>
        <mxCell id="oB86rz4Y4QlZCWIwaVJf-276" value="int" style="shape=partialRectangle;connectable=0;fillColor=none;top=0;left=0;bottom=0;right=0;align=left;spacingLeft=2;overflow=hidden;fontSize=11;" vertex="1" parent="oB86rz4Y4QlZCWIwaVJf-275">
          <mxGeometry width="36" height="47" as="geometry">
            <mxRectangle width="36" height="47" as="alternateBounds" />
          </mxGeometry>
        </mxCell>
        <mxCell id="oB86rz4Y4QlZCWIwaVJf-277" value="enterprise_id" style="shape=partialRectangle;connectable=0;fillColor=none;top=0;left=0;bottom=0;right=0;align=left;spacingLeft=2;overflow=hidden;fontSize=11;" vertex="1" parent="oB86rz4Y4QlZCWIwaVJf-275">
          <mxGeometry x="36" width="171" height="47" as="geometry">
            <mxRectangle width="171" height="47" as="alternateBounds" />
          </mxGeometry>
        </mxCell>
        <mxCell id="oB86rz4Y4QlZCWIwaVJf-278" value="FK" style="shape=partialRectangle;connectable=0;fillColor=none;top=0;left=0;bottom=0;right=0;align=left;spacingLeft=2;overflow=hidden;fontSize=11;" vertex="1" parent="oB86rz4Y4QlZCWIwaVJf-275">
          <mxGeometry x="207" width="22" height="47" as="geometry">
            <mxRectangle width="22" height="47" as="alternateBounds" />
          </mxGeometry>
        </mxCell>
        <mxCell id="oB86rz4Y4QlZCWIwaVJf-279" style="shape=tableRow;horizontal=0;startSize=0;swimlaneHead=0;swimlaneBody=0;fillColor=none;collapsible=0;dropTarget=0;points=[[0,0.5],[1,0.5]];portConstraint=eastwest;top=0;left=0;right=0;bottom=0;" vertex="1" parent="oB86rz4Y4QlZCWIwaVJf-270">
          <mxGeometry y="119" width="229" height="47" as="geometry" />
        </mxCell>
        <mxCell id="oB86rz4Y4QlZCWIwaVJf-280" value="string" style="shape=partialRectangle;connectable=0;fillColor=none;top=0;left=0;bottom=0;right=0;align=left;spacingLeft=2;overflow=hidden;fontSize=11;" vertex="1" parent="oB86rz4Y4QlZCWIwaVJf-279">
          <mxGeometry width="36" height="47" as="geometry">
            <mxRectangle width="36" height="47" as="alternateBounds" />
          </mxGeometry>
        </mxCell>
        <mxCell id="oB86rz4Y4QlZCWIwaVJf-281" value="name" style="shape=partialRectangle;connectable=0;fillColor=none;top=0;left=0;bottom=0;right=0;align=left;spacingLeft=2;overflow=hidden;fontSize=11;" vertex="1" parent="oB86rz4Y4QlZCWIwaVJf-279">
          <mxGeometry x="36" width="171" height="47" as="geometry">
            <mxRectangle width="171" height="47" as="alternateBounds" />
          </mxGeometry>
        </mxCell>
        <mxCell id="oB86rz4Y4QlZCWIwaVJf-282" value="" style="shape=partialRectangle;connectable=0;fillColor=none;top=0;left=0;bottom=0;right=0;align=left;spacingLeft=2;overflow=hidden;fontSize=11;" vertex="1" parent="oB86rz4Y4QlZCWIwaVJf-279">
          <mxGeometry x="207" width="22" height="47" as="geometry">
            <mxRectangle width="22" height="47" as="alternateBounds" />
          </mxGeometry>
        </mxCell>
        <mxCell id="oB86rz4Y4QlZCWIwaVJf-283" style="shape=tableRow;horizontal=0;startSize=0;swimlaneHead=0;swimlaneBody=0;fillColor=none;collapsible=0;dropTarget=0;points=[[0,0.5],[1,0.5]];portConstraint=eastwest;top=0;left=0;right=0;bottom=0;" vertex="1" parent="oB86rz4Y4QlZCWIwaVJf-270">
          <mxGeometry y="166" width="229" height="47" as="geometry" />
        </mxCell>
        <mxCell id="oB86rz4Y4QlZCWIwaVJf-284" value="string" style="shape=partialRectangle;connectable=0;fillColor=none;top=0;left=0;bottom=0;right=0;align=left;spacingLeft=2;overflow=hidden;fontSize=11;" vertex="1" parent="oB86rz4Y4QlZCWIwaVJf-283">
          <mxGeometry width="36" height="47" as="geometry">
            <mxRectangle width="36" height="47" as="alternateBounds" />
          </mxGeometry>
        </mxCell>
        <mxCell id="oB86rz4Y4QlZCWIwaVJf-285" value="email" style="shape=partialRectangle;connectable=0;fillColor=none;top=0;left=0;bottom=0;right=0;align=left;spacingLeft=2;overflow=hidden;fontSize=11;" vertex="1" parent="oB86rz4Y4QlZCWIwaVJf-283">
          <mxGeometry x="36" width="171" height="47" as="geometry">
            <mxRectangle width="171" height="47" as="alternateBounds" />
          </mxGeometry>
        </mxCell>
        <mxCell id="oB86rz4Y4QlZCWIwaVJf-286" value="" style="shape=partialRectangle;connectable=0;fillColor=none;top=0;left=0;bottom=0;right=0;align=left;spacingLeft=2;overflow=hidden;fontSize=11;" vertex="1" parent="oB86rz4Y4QlZCWIwaVJf-283">
          <mxGeometry x="207" width="22" height="47" as="geometry">
            <mxRectangle width="22" height="47" as="alternateBounds" />
          </mxGeometry>
        </mxCell>
        <mxCell id="oB86rz4Y4QlZCWIwaVJf-287" value="EnterpriseRole" style="shape=table;startSize=25;container=1;collapsible=0;childLayout=tableLayout;fixedRows=1;rowLines=1;fontStyle=1;align=center;resizeLast=1;" vertex="1" parent="1">
          <mxGeometry x="1378" y="1665" width="229" height="172" as="geometry" />
        </mxCell>
        <mxCell id="oB86rz4Y4QlZCWIwaVJf-288" style="shape=tableRow;horizontal=0;startSize=0;swimlaneHead=0;swimlaneBody=0;fillColor=none;collapsible=0;dropTarget=0;points=[[0,0.5],[1,0.5]];portConstraint=eastwest;top=0;left=0;right=0;bottom=0;" vertex="1" parent="oB86rz4Y4QlZCWIwaVJf-287">
          <mxGeometry y="25" width="229" height="49" as="geometry" />
        </mxCell>
        <mxCell id="oB86rz4Y4QlZCWIwaVJf-289" value="int" style="shape=partialRectangle;connectable=0;fillColor=none;top=0;left=0;bottom=0;right=0;align=left;spacingLeft=2;overflow=hidden;fontSize=11;" vertex="1" parent="oB86rz4Y4QlZCWIwaVJf-288">
          <mxGeometry width="36" height="49" as="geometry">
            <mxRectangle width="36" height="49" as="alternateBounds" />
          </mxGeometry>
        </mxCell>
        <mxCell id="oB86rz4Y4QlZCWIwaVJf-290" value="id" style="shape=partialRectangle;connectable=0;fillColor=none;top=0;left=0;bottom=0;right=0;align=left;spacingLeft=2;overflow=hidden;fontSize=11;" vertex="1" parent="oB86rz4Y4QlZCWIwaVJf-288">
          <mxGeometry x="36" width="171" height="49" as="geometry">
            <mxRectangle width="171" height="49" as="alternateBounds" />
          </mxGeometry>
        </mxCell>
        <mxCell id="oB86rz4Y4QlZCWIwaVJf-291" value="PK" style="shape=partialRectangle;connectable=0;fillColor=none;top=0;left=0;bottom=0;right=0;align=left;spacingLeft=2;overflow=hidden;fontSize=11;" vertex="1" parent="oB86rz4Y4QlZCWIwaVJf-288">
          <mxGeometry x="207" width="22" height="49" as="geometry">
            <mxRectangle width="22" height="49" as="alternateBounds" />
          </mxGeometry>
        </mxCell>
        <mxCell id="oB86rz4Y4QlZCWIwaVJf-292" style="shape=tableRow;horizontal=0;startSize=0;swimlaneHead=0;swimlaneBody=0;fillColor=none;collapsible=0;dropTarget=0;points=[[0,0.5],[1,0.5]];portConstraint=eastwest;top=0;left=0;right=0;bottom=0;" vertex="1" parent="oB86rz4Y4QlZCWIwaVJf-287">
          <mxGeometry y="74" width="229" height="49" as="geometry" />
        </mxCell>
        <mxCell id="oB86rz4Y4QlZCWIwaVJf-293" value="int" style="shape=partialRectangle;connectable=0;fillColor=none;top=0;left=0;bottom=0;right=0;align=left;spacingLeft=2;overflow=hidden;fontSize=11;" vertex="1" parent="oB86rz4Y4QlZCWIwaVJf-292">
          <mxGeometry width="36" height="49" as="geometry">
            <mxRectangle width="36" height="49" as="alternateBounds" />
          </mxGeometry>
        </mxCell>
        <mxCell id="oB86rz4Y4QlZCWIwaVJf-294" value="enterprise_id" style="shape=partialRectangle;connectable=0;fillColor=none;top=0;left=0;bottom=0;right=0;align=left;spacingLeft=2;overflow=hidden;fontSize=11;" vertex="1" parent="oB86rz4Y4QlZCWIwaVJf-292">
          <mxGeometry x="36" width="171" height="49" as="geometry">
            <mxRectangle width="171" height="49" as="alternateBounds" />
          </mxGeometry>
        </mxCell>
        <mxCell id="oB86rz4Y4QlZCWIwaVJf-295" value="FK" style="shape=partialRectangle;connectable=0;fillColor=none;top=0;left=0;bottom=0;right=0;align=left;spacingLeft=2;overflow=hidden;fontSize=11;" vertex="1" parent="oB86rz4Y4QlZCWIwaVJf-292">
          <mxGeometry x="207" width="22" height="49" as="geometry">
            <mxRectangle width="22" height="49" as="alternateBounds" />
          </mxGeometry>
        </mxCell>
        <mxCell id="oB86rz4Y4QlZCWIwaVJf-296" style="shape=tableRow;horizontal=0;startSize=0;swimlaneHead=0;swimlaneBody=0;fillColor=none;collapsible=0;dropTarget=0;points=[[0,0.5],[1,0.5]];portConstraint=eastwest;top=0;left=0;right=0;bottom=0;" vertex="1" parent="oB86rz4Y4QlZCWIwaVJf-287">
          <mxGeometry y="123" width="229" height="49" as="geometry" />
        </mxCell>
        <mxCell id="oB86rz4Y4QlZCWIwaVJf-297" value="string" style="shape=partialRectangle;connectable=0;fillColor=none;top=0;left=0;bottom=0;right=0;align=left;spacingLeft=2;overflow=hidden;fontSize=11;" vertex="1" parent="oB86rz4Y4QlZCWIwaVJf-296">
          <mxGeometry width="36" height="49" as="geometry">
            <mxRectangle width="36" height="49" as="alternateBounds" />
          </mxGeometry>
        </mxCell>
        <mxCell id="oB86rz4Y4QlZCWIwaVJf-298" value="name" style="shape=partialRectangle;connectable=0;fillColor=none;top=0;left=0;bottom=0;right=0;align=left;spacingLeft=2;overflow=hidden;fontSize=11;" vertex="1" parent="oB86rz4Y4QlZCWIwaVJf-296">
          <mxGeometry x="36" width="171" height="49" as="geometry">
            <mxRectangle width="171" height="49" as="alternateBounds" />
          </mxGeometry>
        </mxCell>
        <mxCell id="oB86rz4Y4QlZCWIwaVJf-299" value="" style="shape=partialRectangle;connectable=0;fillColor=none;top=0;left=0;bottom=0;right=0;align=left;spacingLeft=2;overflow=hidden;fontSize=11;" vertex="1" parent="oB86rz4Y4QlZCWIwaVJf-296">
          <mxGeometry x="207" width="22" height="49" as="geometry">
            <mxRectangle width="22" height="49" as="alternateBounds" />
          </mxGeometry>
        </mxCell>
        <mxCell id="oB86rz4Y4QlZCWIwaVJf-300" value="WorkLocation" style="shape=table;startSize=25;container=1;collapsible=0;childLayout=tableLayout;fixedRows=1;rowLines=1;fontStyle=1;align=center;resizeLast=1;" vertex="1" parent="1">
          <mxGeometry x="1657" y="947" width="229" height="172" as="geometry" />
        </mxCell>
        <mxCell id="oB86rz4Y4QlZCWIwaVJf-301" style="shape=tableRow;horizontal=0;startSize=0;swimlaneHead=0;swimlaneBody=0;fillColor=none;collapsible=0;dropTarget=0;points=[[0,0.5],[1,0.5]];portConstraint=eastwest;top=0;left=0;right=0;bottom=0;" vertex="1" parent="oB86rz4Y4QlZCWIwaVJf-300">
          <mxGeometry y="25" width="229" height="49" as="geometry" />
        </mxCell>
        <mxCell id="oB86rz4Y4QlZCWIwaVJf-302" value="int" style="shape=partialRectangle;connectable=0;fillColor=none;top=0;left=0;bottom=0;right=0;align=left;spacingLeft=2;overflow=hidden;fontSize=11;" vertex="1" parent="oB86rz4Y4QlZCWIwaVJf-301">
          <mxGeometry width="36" height="49" as="geometry">
            <mxRectangle width="36" height="49" as="alternateBounds" />
          </mxGeometry>
        </mxCell>
        <mxCell id="oB86rz4Y4QlZCWIwaVJf-303" value="id" style="shape=partialRectangle;connectable=0;fillColor=none;top=0;left=0;bottom=0;right=0;align=left;spacingLeft=2;overflow=hidden;fontSize=11;" vertex="1" parent="oB86rz4Y4QlZCWIwaVJf-301">
          <mxGeometry x="36" width="171" height="49" as="geometry">
            <mxRectangle width="171" height="49" as="alternateBounds" />
          </mxGeometry>
        </mxCell>
        <mxCell id="oB86rz4Y4QlZCWIwaVJf-304" value="PK" style="shape=partialRectangle;connectable=0;fillColor=none;top=0;left=0;bottom=0;right=0;align=left;spacingLeft=2;overflow=hidden;fontSize=11;" vertex="1" parent="oB86rz4Y4QlZCWIwaVJf-301">
          <mxGeometry x="207" width="22" height="49" as="geometry">
            <mxRectangle width="22" height="49" as="alternateBounds" />
          </mxGeometry>
        </mxCell>
        <mxCell id="oB86rz4Y4QlZCWIwaVJf-305" style="shape=tableRow;horizontal=0;startSize=0;swimlaneHead=0;swimlaneBody=0;fillColor=none;collapsible=0;dropTarget=0;points=[[0,0.5],[1,0.5]];portConstraint=eastwest;top=0;left=0;right=0;bottom=0;" vertex="1" parent="oB86rz4Y4QlZCWIwaVJf-300">
          <mxGeometry y="74" width="229" height="49" as="geometry" />
        </mxCell>
        <mxCell id="oB86rz4Y4QlZCWIwaVJf-306" value="int" style="shape=partialRectangle;connectable=0;fillColor=none;top=0;left=0;bottom=0;right=0;align=left;spacingLeft=2;overflow=hidden;fontSize=11;" vertex="1" parent="oB86rz4Y4QlZCWIwaVJf-305">
          <mxGeometry width="36" height="49" as="geometry">
            <mxRectangle width="36" height="49" as="alternateBounds" />
          </mxGeometry>
        </mxCell>
        <mxCell id="oB86rz4Y4QlZCWIwaVJf-307" value="enterprise_id" style="shape=partialRectangle;connectable=0;fillColor=none;top=0;left=0;bottom=0;right=0;align=left;spacingLeft=2;overflow=hidden;fontSize=11;" vertex="1" parent="oB86rz4Y4QlZCWIwaVJf-305">
          <mxGeometry x="36" width="171" height="49" as="geometry">
            <mxRectangle width="171" height="49" as="alternateBounds" />
          </mxGeometry>
        </mxCell>
        <mxCell id="oB86rz4Y4QlZCWIwaVJf-308" value="FK" style="shape=partialRectangle;connectable=0;fillColor=none;top=0;left=0;bottom=0;right=0;align=left;spacingLeft=2;overflow=hidden;fontSize=11;" vertex="1" parent="oB86rz4Y4QlZCWIwaVJf-305">
          <mxGeometry x="207" width="22" height="49" as="geometry">
            <mxRectangle width="22" height="49" as="alternateBounds" />
          </mxGeometry>
        </mxCell>
        <mxCell id="oB86rz4Y4QlZCWIwaVJf-309" style="shape=tableRow;horizontal=0;startSize=0;swimlaneHead=0;swimlaneBody=0;fillColor=none;collapsible=0;dropTarget=0;points=[[0,0.5],[1,0.5]];portConstraint=eastwest;top=0;left=0;right=0;bottom=0;" vertex="1" parent="oB86rz4Y4QlZCWIwaVJf-300">
          <mxGeometry y="123" width="229" height="49" as="geometry" />
        </mxCell>
        <mxCell id="oB86rz4Y4QlZCWIwaVJf-310" value="string" style="shape=partialRectangle;connectable=0;fillColor=none;top=0;left=0;bottom=0;right=0;align=left;spacingLeft=2;overflow=hidden;fontSize=11;" vertex="1" parent="oB86rz4Y4QlZCWIwaVJf-309">
          <mxGeometry width="36" height="49" as="geometry">
            <mxRectangle width="36" height="49" as="alternateBounds" />
          </mxGeometry>
        </mxCell>
        <mxCell id="oB86rz4Y4QlZCWIwaVJf-311" value="name" style="shape=partialRectangle;connectable=0;fillColor=none;top=0;left=0;bottom=0;right=0;align=left;spacingLeft=2;overflow=hidden;fontSize=11;" vertex="1" parent="oB86rz4Y4QlZCWIwaVJf-309">
          <mxGeometry x="36" width="171" height="49" as="geometry">
            <mxRectangle width="171" height="49" as="alternateBounds" />
          </mxGeometry>
        </mxCell>
        <mxCell id="oB86rz4Y4QlZCWIwaVJf-312" value="" style="shape=partialRectangle;connectable=0;fillColor=none;top=0;left=0;bottom=0;right=0;align=left;spacingLeft=2;overflow=hidden;fontSize=11;" vertex="1" parent="oB86rz4Y4QlZCWIwaVJf-309">
          <mxGeometry x="207" width="22" height="49" as="geometry">
            <mxRectangle width="22" height="49" as="alternateBounds" />
          </mxGeometry>
        </mxCell>
        <mxCell id="oB86rz4Y4QlZCWIwaVJf-313" value="Device" style="shape=table;startSize=25;container=1;collapsible=0;childLayout=tableLayout;fixedRows=1;rowLines=1;fontStyle=1;align=center;resizeLast=1;" vertex="1" parent="1">
          <mxGeometry x="218" y="883" width="229" height="301" as="geometry" />
        </mxCell>
        <mxCell id="oB86rz4Y4QlZCWIwaVJf-314" style="shape=tableRow;horizontal=0;startSize=0;swimlaneHead=0;swimlaneBody=0;fillColor=none;collapsible=0;dropTarget=0;points=[[0,0.5],[1,0.5]];portConstraint=eastwest;top=0;left=0;right=0;bottom=0;" vertex="1" parent="oB86rz4Y4QlZCWIwaVJf-313">
          <mxGeometry y="25" width="229" height="46" as="geometry" />
        </mxCell>
        <mxCell id="oB86rz4Y4QlZCWIwaVJf-315" value="int" style="shape=partialRectangle;connectable=0;fillColor=none;top=0;left=0;bottom=0;right=0;align=left;spacingLeft=2;overflow=hidden;fontSize=11;" vertex="1" parent="oB86rz4Y4QlZCWIwaVJf-314">
          <mxGeometry width="36" height="46" as="geometry">
            <mxRectangle width="36" height="46" as="alternateBounds" />
          </mxGeometry>
        </mxCell>
        <mxCell id="oB86rz4Y4QlZCWIwaVJf-316" value="id" style="shape=partialRectangle;connectable=0;fillColor=none;top=0;left=0;bottom=0;right=0;align=left;spacingLeft=2;overflow=hidden;fontSize=11;" vertex="1" parent="oB86rz4Y4QlZCWIwaVJf-314">
          <mxGeometry x="36" width="171" height="46" as="geometry">
            <mxRectangle width="171" height="46" as="alternateBounds" />
          </mxGeometry>
        </mxCell>
        <mxCell id="oB86rz4Y4QlZCWIwaVJf-317" value="PK" style="shape=partialRectangle;connectable=0;fillColor=none;top=0;left=0;bottom=0;right=0;align=left;spacingLeft=2;overflow=hidden;fontSize=11;" vertex="1" parent="oB86rz4Y4QlZCWIwaVJf-314">
          <mxGeometry x="207" width="22" height="46" as="geometry">
            <mxRectangle width="22" height="46" as="alternateBounds" />
          </mxGeometry>
        </mxCell>
        <mxCell id="oB86rz4Y4QlZCWIwaVJf-318" style="shape=tableRow;horizontal=0;startSize=0;swimlaneHead=0;swimlaneBody=0;fillColor=none;collapsible=0;dropTarget=0;points=[[0,0.5],[1,0.5]];portConstraint=eastwest;top=0;left=0;right=0;bottom=0;" vertex="1" parent="oB86rz4Y4QlZCWIwaVJf-313">
          <mxGeometry y="71" width="229" height="46" as="geometry" />
        </mxCell>
        <mxCell id="oB86rz4Y4QlZCWIwaVJf-319" value="int" style="shape=partialRectangle;connectable=0;fillColor=none;top=0;left=0;bottom=0;right=0;align=left;spacingLeft=2;overflow=hidden;fontSize=11;" vertex="1" parent="oB86rz4Y4QlZCWIwaVJf-318">
          <mxGeometry width="36" height="46" as="geometry">
            <mxRectangle width="36" height="46" as="alternateBounds" />
          </mxGeometry>
        </mxCell>
        <mxCell id="oB86rz4Y4QlZCWIwaVJf-320" value="enterprise_id" style="shape=partialRectangle;connectable=0;fillColor=none;top=0;left=0;bottom=0;right=0;align=left;spacingLeft=2;overflow=hidden;fontSize=11;" vertex="1" parent="oB86rz4Y4QlZCWIwaVJf-318">
          <mxGeometry x="36" width="171" height="46" as="geometry">
            <mxRectangle width="171" height="46" as="alternateBounds" />
          </mxGeometry>
        </mxCell>
        <mxCell id="oB86rz4Y4QlZCWIwaVJf-321" value="FK" style="shape=partialRectangle;connectable=0;fillColor=none;top=0;left=0;bottom=0;right=0;align=left;spacingLeft=2;overflow=hidden;fontSize=11;" vertex="1" parent="oB86rz4Y4QlZCWIwaVJf-318">
          <mxGeometry x="207" width="22" height="46" as="geometry">
            <mxRectangle width="22" height="46" as="alternateBounds" />
          </mxGeometry>
        </mxCell>
        <mxCell id="oB86rz4Y4QlZCWIwaVJf-322" style="shape=tableRow;horizontal=0;startSize=0;swimlaneHead=0;swimlaneBody=0;fillColor=none;collapsible=0;dropTarget=0;points=[[0,0.5],[1,0.5]];portConstraint=eastwest;top=0;left=0;right=0;bottom=0;" vertex="1" parent="oB86rz4Y4QlZCWIwaVJf-313">
          <mxGeometry y="117" width="229" height="46" as="geometry" />
        </mxCell>
        <mxCell id="oB86rz4Y4QlZCWIwaVJf-323" value="int" style="shape=partialRectangle;connectable=0;fillColor=none;top=0;left=0;bottom=0;right=0;align=left;spacingLeft=2;overflow=hidden;fontSize=11;" vertex="1" parent="oB86rz4Y4QlZCWIwaVJf-322">
          <mxGeometry width="36" height="46" as="geometry">
            <mxRectangle width="36" height="46" as="alternateBounds" />
          </mxGeometry>
        </mxCell>
        <mxCell id="oB86rz4Y4QlZCWIwaVJf-324" value="user_id" style="shape=partialRectangle;connectable=0;fillColor=none;top=0;left=0;bottom=0;right=0;align=left;spacingLeft=2;overflow=hidden;fontSize=11;" vertex="1" parent="oB86rz4Y4QlZCWIwaVJf-322">
          <mxGeometry x="36" width="171" height="46" as="geometry">
            <mxRectangle width="171" height="46" as="alternateBounds" />
          </mxGeometry>
        </mxCell>
        <mxCell id="oB86rz4Y4QlZCWIwaVJf-325" value="FK" style="shape=partialRectangle;connectable=0;fillColor=none;top=0;left=0;bottom=0;right=0;align=left;spacingLeft=2;overflow=hidden;fontSize=11;" vertex="1" parent="oB86rz4Y4QlZCWIwaVJf-322">
          <mxGeometry x="207" width="22" height="46" as="geometry">
            <mxRectangle width="22" height="46" as="alternateBounds" />
          </mxGeometry>
        </mxCell>
        <mxCell id="oB86rz4Y4QlZCWIwaVJf-326" style="shape=tableRow;horizontal=0;startSize=0;swimlaneHead=0;swimlaneBody=0;fillColor=none;collapsible=0;dropTarget=0;points=[[0,0.5],[1,0.5]];portConstraint=eastwest;top=0;left=0;right=0;bottom=0;" vertex="1" parent="oB86rz4Y4QlZCWIwaVJf-313">
          <mxGeometry y="163" width="229" height="46" as="geometry" />
        </mxCell>
        <mxCell id="oB86rz4Y4QlZCWIwaVJf-327" value="int" style="shape=partialRectangle;connectable=0;fillColor=none;top=0;left=0;bottom=0;right=0;align=left;spacingLeft=2;overflow=hidden;fontSize=11;" vertex="1" parent="oB86rz4Y4QlZCWIwaVJf-326">
          <mxGeometry width="36" height="46" as="geometry">
            <mxRectangle width="36" height="46" as="alternateBounds" />
          </mxGeometry>
        </mxCell>
        <mxCell id="oB86rz4Y4QlZCWIwaVJf-328" value="carrier_id" style="shape=partialRectangle;connectable=0;fillColor=none;top=0;left=0;bottom=0;right=0;align=left;spacingLeft=2;overflow=hidden;fontSize=11;" vertex="1" parent="oB86rz4Y4QlZCWIwaVJf-326">
          <mxGeometry x="36" width="171" height="46" as="geometry">
            <mxRectangle width="171" height="46" as="alternateBounds" />
          </mxGeometry>
        </mxCell>
        <mxCell id="oB86rz4Y4QlZCWIwaVJf-329" value="FK" style="shape=partialRectangle;connectable=0;fillColor=none;top=0;left=0;bottom=0;right=0;align=left;spacingLeft=2;overflow=hidden;fontSize=11;" vertex="1" parent="oB86rz4Y4QlZCWIwaVJf-326">
          <mxGeometry x="207" width="22" height="46" as="geometry">
            <mxRectangle width="22" height="46" as="alternateBounds" />
          </mxGeometry>
        </mxCell>
        <mxCell id="oB86rz4Y4QlZCWIwaVJf-330" style="shape=tableRow;horizontal=0;startSize=0;swimlaneHead=0;swimlaneBody=0;fillColor=none;collapsible=0;dropTarget=0;points=[[0,0.5],[1,0.5]];portConstraint=eastwest;top=0;left=0;right=0;bottom=0;" vertex="1" parent="oB86rz4Y4QlZCWIwaVJf-313">
          <mxGeometry y="209" width="229" height="46" as="geometry" />
        </mxCell>
        <mxCell id="oB86rz4Y4QlZCWIwaVJf-331" value="string" style="shape=partialRectangle;connectable=0;fillColor=none;top=0;left=0;bottom=0;right=0;align=left;spacingLeft=2;overflow=hidden;fontSize=11;" vertex="1" parent="oB86rz4Y4QlZCWIwaVJf-330">
          <mxGeometry width="36" height="46" as="geometry">
            <mxRectangle width="36" height="46" as="alternateBounds" />
          </mxGeometry>
        </mxCell>
        <mxCell id="oB86rz4Y4QlZCWIwaVJf-332" value="device_type" style="shape=partialRectangle;connectable=0;fillColor=none;top=0;left=0;bottom=0;right=0;align=left;spacingLeft=2;overflow=hidden;fontSize=11;" vertex="1" parent="oB86rz4Y4QlZCWIwaVJf-330">
          <mxGeometry x="36" width="171" height="46" as="geometry">
            <mxRectangle width="171" height="46" as="alternateBounds" />
          </mxGeometry>
        </mxCell>
        <mxCell id="oB86rz4Y4QlZCWIwaVJf-333" value="" style="shape=partialRectangle;connectable=0;fillColor=none;top=0;left=0;bottom=0;right=0;align=left;spacingLeft=2;overflow=hidden;fontSize=11;" vertex="1" parent="oB86rz4Y4QlZCWIwaVJf-330">
          <mxGeometry x="207" width="22" height="46" as="geometry">
            <mxRectangle width="22" height="46" as="alternateBounds" />
          </mxGeometry>
        </mxCell>
        <mxCell id="oB86rz4Y4QlZCWIwaVJf-334" style="shape=tableRow;horizontal=0;startSize=0;swimlaneHead=0;swimlaneBody=0;fillColor=none;collapsible=0;dropTarget=0;points=[[0,0.5],[1,0.5]];portConstraint=eastwest;top=0;left=0;right=0;bottom=0;" vertex="1" parent="oB86rz4Y4QlZCWIwaVJf-313">
          <mxGeometry y="255" width="229" height="46" as="geometry" />
        </mxCell>
        <mxCell id="oB86rz4Y4QlZCWIwaVJf-335" value="string" style="shape=partialRectangle;connectable=0;fillColor=none;top=0;left=0;bottom=0;right=0;align=left;spacingLeft=2;overflow=hidden;fontSize=11;" vertex="1" parent="oB86rz4Y4QlZCWIwaVJf-334">
          <mxGeometry width="36" height="46" as="geometry">
            <mxRectangle width="36" height="46" as="alternateBounds" />
          </mxGeometry>
        </mxCell>
        <mxCell id="oB86rz4Y4QlZCWIwaVJf-336" value="os" style="shape=partialRectangle;connectable=0;fillColor=none;top=0;left=0;bottom=0;right=0;align=left;spacingLeft=2;overflow=hidden;fontSize=11;" vertex="1" parent="oB86rz4Y4QlZCWIwaVJf-334">
          <mxGeometry x="36" width="171" height="46" as="geometry">
            <mxRectangle width="171" height="46" as="alternateBounds" />
          </mxGeometry>
        </mxCell>
        <mxCell id="oB86rz4Y4QlZCWIwaVJf-337" value="" style="shape=partialRectangle;connectable=0;fillColor=none;top=0;left=0;bottom=0;right=0;align=left;spacingLeft=2;overflow=hidden;fontSize=11;" vertex="1" parent="oB86rz4Y4QlZCWIwaVJf-334">
          <mxGeometry x="207" width="22" height="46" as="geometry">
            <mxRectangle width="22" height="46" as="alternateBounds" />
          </mxGeometry>
        </mxCell>
        <mxCell id="oB86rz4Y4QlZCWIwaVJf-338" value="Carrier" style="shape=table;startSize=25;container=1;collapsible=0;childLayout=tableLayout;fixedRows=1;rowLines=1;fontStyle=1;align=center;resizeLast=1;" vertex="1" parent="1">
          <mxGeometry x="130" y="1580" width="173" height="129" as="geometry" />
        </mxCell>
        <mxCell id="oB86rz4Y4QlZCWIwaVJf-339" style="shape=tableRow;horizontal=0;startSize=0;swimlaneHead=0;swimlaneBody=0;fillColor=none;collapsible=0;dropTarget=0;points=[[0,0.5],[1,0.5]];portConstraint=eastwest;top=0;left=0;right=0;bottom=0;" vertex="1" parent="oB86rz4Y4QlZCWIwaVJf-338">
          <mxGeometry y="25" width="173" height="52" as="geometry" />
        </mxCell>
        <mxCell id="oB86rz4Y4QlZCWIwaVJf-340" value="int" style="shape=partialRectangle;connectable=0;fillColor=none;top=0;left=0;bottom=0;right=0;align=left;spacingLeft=2;overflow=hidden;fontSize=11;" vertex="1" parent="oB86rz4Y4QlZCWIwaVJf-339">
          <mxGeometry width="36" height="52" as="geometry">
            <mxRectangle width="36" height="52" as="alternateBounds" />
          </mxGeometry>
        </mxCell>
        <mxCell id="oB86rz4Y4QlZCWIwaVJf-341" value="id" style="shape=partialRectangle;connectable=0;fillColor=none;top=0;left=0;bottom=0;right=0;align=left;spacingLeft=2;overflow=hidden;fontSize=11;" vertex="1" parent="oB86rz4Y4QlZCWIwaVJf-339">
          <mxGeometry x="36" width="115" height="52" as="geometry">
            <mxRectangle width="115" height="52" as="alternateBounds" />
          </mxGeometry>
        </mxCell>
        <mxCell id="oB86rz4Y4QlZCWIwaVJf-342" value="PK" style="shape=partialRectangle;connectable=0;fillColor=none;top=0;left=0;bottom=0;right=0;align=left;spacingLeft=2;overflow=hidden;fontSize=11;" vertex="1" parent="oB86rz4Y4QlZCWIwaVJf-339">
          <mxGeometry x="151" width="22" height="52" as="geometry">
            <mxRectangle width="22" height="52" as="alternateBounds" />
          </mxGeometry>
        </mxCell>
        <mxCell id="oB86rz4Y4QlZCWIwaVJf-343" style="shape=tableRow;horizontal=0;startSize=0;swimlaneHead=0;swimlaneBody=0;fillColor=none;collapsible=0;dropTarget=0;points=[[0,0.5],[1,0.5]];portConstraint=eastwest;top=0;left=0;right=0;bottom=0;" vertex="1" parent="oB86rz4Y4QlZCWIwaVJf-338">
          <mxGeometry y="77" width="173" height="52" as="geometry" />
        </mxCell>
        <mxCell id="oB86rz4Y4QlZCWIwaVJf-344" value="string" style="shape=partialRectangle;connectable=0;fillColor=none;top=0;left=0;bottom=0;right=0;align=left;spacingLeft=2;overflow=hidden;fontSize=11;" vertex="1" parent="oB86rz4Y4QlZCWIwaVJf-343">
          <mxGeometry width="36" height="52" as="geometry">
            <mxRectangle width="36" height="52" as="alternateBounds" />
          </mxGeometry>
        </mxCell>
        <mxCell id="oB86rz4Y4QlZCWIwaVJf-345" value="name" style="shape=partialRectangle;connectable=0;fillColor=none;top=0;left=0;bottom=0;right=0;align=left;spacingLeft=2;overflow=hidden;fontSize=11;" vertex="1" parent="oB86rz4Y4QlZCWIwaVJf-343">
          <mxGeometry x="36" width="115" height="52" as="geometry">
            <mxRectangle width="115" height="52" as="alternateBounds" />
          </mxGeometry>
        </mxCell>
        <mxCell id="oB86rz4Y4QlZCWIwaVJf-346" value="" style="shape=partialRectangle;connectable=0;fillColor=none;top=0;left=0;bottom=0;right=0;align=left;spacingLeft=2;overflow=hidden;fontSize=11;" vertex="1" parent="oB86rz4Y4QlZCWIwaVJf-343">
          <mxGeometry x="151" width="22" height="52" as="geometry">
            <mxRectangle width="22" height="52" as="alternateBounds" />
          </mxGeometry>
        </mxCell>
        <mxCell id="oB86rz4Y4QlZCWIwaVJf-347" value="DeviceInventoryItem" style="shape=table;startSize=25;container=1;collapsible=0;childLayout=tableLayout;fixedRows=1;rowLines=1;fontStyle=1;align=center;resizeLast=1;" vertex="1" parent="1">
          <mxGeometry x="235" y="1306" width="198" height="172" as="geometry" />
        </mxCell>
        <mxCell id="oB86rz4Y4QlZCWIwaVJf-348" style="shape=tableRow;horizontal=0;startSize=0;swimlaneHead=0;swimlaneBody=0;fillColor=none;collapsible=0;dropTarget=0;points=[[0,0.5],[1,0.5]];portConstraint=eastwest;top=0;left=0;right=0;bottom=0;" vertex="1" parent="oB86rz4Y4QlZCWIwaVJf-347">
          <mxGeometry y="25" width="198" height="49" as="geometry" />
        </mxCell>
        <mxCell id="oB86rz4Y4QlZCWIwaVJf-349" value="int" style="shape=partialRectangle;connectable=0;fillColor=none;top=0;left=0;bottom=0;right=0;align=left;spacingLeft=2;overflow=hidden;fontSize=11;" vertex="1" parent="oB86rz4Y4QlZCWIwaVJf-348">
          <mxGeometry width="36" height="49" as="geometry">
            <mxRectangle width="36" height="49" as="alternateBounds" />
          </mxGeometry>
        </mxCell>
        <mxCell id="oB86rz4Y4QlZCWIwaVJf-350" value="id" style="shape=partialRectangle;connectable=0;fillColor=none;top=0;left=0;bottom=0;right=0;align=left;spacingLeft=2;overflow=hidden;fontSize=11;" vertex="1" parent="oB86rz4Y4QlZCWIwaVJf-348">
          <mxGeometry x="36" width="140" height="49" as="geometry">
            <mxRectangle width="140" height="49" as="alternateBounds" />
          </mxGeometry>
        </mxCell>
        <mxCell id="oB86rz4Y4QlZCWIwaVJf-351" value="PK" style="shape=partialRectangle;connectable=0;fillColor=none;top=0;left=0;bottom=0;right=0;align=left;spacingLeft=2;overflow=hidden;fontSize=11;" vertex="1" parent="oB86rz4Y4QlZCWIwaVJf-348">
          <mxGeometry x="176" width="22" height="49" as="geometry">
            <mxRectangle width="22" height="49" as="alternateBounds" />
          </mxGeometry>
        </mxCell>
        <mxCell id="oB86rz4Y4QlZCWIwaVJf-352" style="shape=tableRow;horizontal=0;startSize=0;swimlaneHead=0;swimlaneBody=0;fillColor=none;collapsible=0;dropTarget=0;points=[[0,0.5],[1,0.5]];portConstraint=eastwest;top=0;left=0;right=0;bottom=0;" vertex="1" parent="oB86rz4Y4QlZCWIwaVJf-347">
          <mxGeometry y="74" width="198" height="49" as="geometry" />
        </mxCell>
        <mxCell id="oB86rz4Y4QlZCWIwaVJf-353" value="string" style="shape=partialRectangle;connectable=0;fillColor=none;top=0;left=0;bottom=0;right=0;align=left;spacingLeft=2;overflow=hidden;fontSize=11;" vertex="1" parent="oB86rz4Y4QlZCWIwaVJf-352">
          <mxGeometry width="36" height="49" as="geometry">
            <mxRectangle width="36" height="49" as="alternateBounds" />
          </mxGeometry>
        </mxCell>
        <mxCell id="oB86rz4Y4QlZCWIwaVJf-354" value="name" style="shape=partialRectangle;connectable=0;fillColor=none;top=0;left=0;bottom=0;right=0;align=left;spacingLeft=2;overflow=hidden;fontSize=11;" vertex="1" parent="oB86rz4Y4QlZCWIwaVJf-352">
          <mxGeometry x="36" width="140" height="49" as="geometry">
            <mxRectangle width="140" height="49" as="alternateBounds" />
          </mxGeometry>
        </mxCell>
        <mxCell id="oB86rz4Y4QlZCWIwaVJf-355" value="" style="shape=partialRectangle;connectable=0;fillColor=none;top=0;left=0;bottom=0;right=0;align=left;spacingLeft=2;overflow=hidden;fontSize=11;" vertex="1" parent="oB86rz4Y4QlZCWIwaVJf-352">
          <mxGeometry x="176" width="22" height="49" as="geometry">
            <mxRectangle width="22" height="49" as="alternateBounds" />
          </mxGeometry>
        </mxCell>
        <mxCell id="oB86rz4Y4QlZCWIwaVJf-356" style="shape=tableRow;horizontal=0;startSize=0;swimlaneHead=0;swimlaneBody=0;fillColor=none;collapsible=0;dropTarget=0;points=[[0,0.5],[1,0.5]];portConstraint=eastwest;top=0;left=0;right=0;bottom=0;" vertex="1" parent="oB86rz4Y4QlZCWIwaVJf-347">
          <mxGeometry y="123" width="198" height="49" as="geometry" />
        </mxCell>
        <mxCell id="oB86rz4Y4QlZCWIwaVJf-357" value="string" style="shape=partialRectangle;connectable=0;fillColor=none;top=0;left=0;bottom=0;right=0;align=left;spacingLeft=2;overflow=hidden;fontSize=11;" vertex="1" parent="oB86rz4Y4QlZCWIwaVJf-356">
          <mxGeometry width="36" height="49" as="geometry">
            <mxRectangle width="36" height="49" as="alternateBounds" />
          </mxGeometry>
        </mxCell>
        <mxCell id="oB86rz4Y4QlZCWIwaVJf-358" value="os" style="shape=partialRectangle;connectable=0;fillColor=none;top=0;left=0;bottom=0;right=0;align=left;spacingLeft=2;overflow=hidden;fontSize=11;" vertex="1" parent="oB86rz4Y4QlZCWIwaVJf-356">
          <mxGeometry x="36" width="140" height="49" as="geometry">
            <mxRectangle width="140" height="49" as="alternateBounds" />
          </mxGeometry>
        </mxCell>
        <mxCell id="oB86rz4Y4QlZCWIwaVJf-359" value="" style="shape=partialRectangle;connectable=0;fillColor=none;top=0;left=0;bottom=0;right=0;align=left;spacingLeft=2;overflow=hidden;fontSize=11;" vertex="1" parent="oB86rz4Y4QlZCWIwaVJf-356">
          <mxGeometry x="176" width="22" height="49" as="geometry">
            <mxRectangle width="22" height="49" as="alternateBounds" />
          </mxGeometry>
        </mxCell>
        <mxCell id="oB86rz4Y4QlZCWIwaVJf-360" value="Tower" style="shape=table;startSize=25;container=1;collapsible=0;childLayout=tableLayout;fixedRows=1;rowLines=1;fontStyle=1;align=center;resizeLast=1;" vertex="1" parent="1">
          <mxGeometry x="1099" y="1306" width="191" height="172" as="geometry" />
        </mxCell>
        <mxCell id="oB86rz4Y4QlZCWIwaVJf-361" style="shape=tableRow;horizontal=0;startSize=0;swimlaneHead=0;swimlaneBody=0;fillColor=none;collapsible=0;dropTarget=0;points=[[0,0.5],[1,0.5]];portConstraint=eastwest;top=0;left=0;right=0;bottom=0;" vertex="1" parent="oB86rz4Y4QlZCWIwaVJf-360">
          <mxGeometry y="25" width="191" height="49" as="geometry" />
        </mxCell>
        <mxCell id="oB86rz4Y4QlZCWIwaVJf-362" value="int" style="shape=partialRectangle;connectable=0;fillColor=none;top=0;left=0;bottom=0;right=0;align=left;spacingLeft=2;overflow=hidden;fontSize=11;" vertex="1" parent="oB86rz4Y4QlZCWIwaVJf-361">
          <mxGeometry width="36" height="49" as="geometry">
            <mxRectangle width="36" height="49" as="alternateBounds" />
          </mxGeometry>
        </mxCell>
        <mxCell id="oB86rz4Y4QlZCWIwaVJf-363" value="id" style="shape=partialRectangle;connectable=0;fillColor=none;top=0;left=0;bottom=0;right=0;align=left;spacingLeft=2;overflow=hidden;fontSize=11;" vertex="1" parent="oB86rz4Y4QlZCWIwaVJf-361">
          <mxGeometry x="36" width="133" height="49" as="geometry">
            <mxRectangle width="133" height="49" as="alternateBounds" />
          </mxGeometry>
        </mxCell>
        <mxCell id="oB86rz4Y4QlZCWIwaVJf-364" value="PK" style="shape=partialRectangle;connectable=0;fillColor=none;top=0;left=0;bottom=0;right=0;align=left;spacingLeft=2;overflow=hidden;fontSize=11;" vertex="1" parent="oB86rz4Y4QlZCWIwaVJf-361">
          <mxGeometry x="169" width="22" height="49" as="geometry">
            <mxRectangle width="22" height="49" as="alternateBounds" />
          </mxGeometry>
        </mxCell>
        <mxCell id="oB86rz4Y4QlZCWIwaVJf-365" style="shape=tableRow;horizontal=0;startSize=0;swimlaneHead=0;swimlaneBody=0;fillColor=none;collapsible=0;dropTarget=0;points=[[0,0.5],[1,0.5]];portConstraint=eastwest;top=0;left=0;right=0;bottom=0;" vertex="1" parent="oB86rz4Y4QlZCWIwaVJf-360">
          <mxGeometry y="74" width="191" height="49" as="geometry" />
        </mxCell>
        <mxCell id="oB86rz4Y4QlZCWIwaVJf-366" value="string" style="shape=partialRectangle;connectable=0;fillColor=none;top=0;left=0;bottom=0;right=0;align=left;spacingLeft=2;overflow=hidden;fontSize=11;" vertex="1" parent="oB86rz4Y4QlZCWIwaVJf-365">
          <mxGeometry width="36" height="49" as="geometry">
            <mxRectangle width="36" height="49" as="alternateBounds" />
          </mxGeometry>
        </mxCell>
        <mxCell id="oB86rz4Y4QlZCWIwaVJf-367" value="location" style="shape=partialRectangle;connectable=0;fillColor=none;top=0;left=0;bottom=0;right=0;align=left;spacingLeft=2;overflow=hidden;fontSize=11;" vertex="1" parent="oB86rz4Y4QlZCWIwaVJf-365">
          <mxGeometry x="36" width="133" height="49" as="geometry">
            <mxRectangle width="133" height="49" as="alternateBounds" />
          </mxGeometry>
        </mxCell>
        <mxCell id="oB86rz4Y4QlZCWIwaVJf-368" value="" style="shape=partialRectangle;connectable=0;fillColor=none;top=0;left=0;bottom=0;right=0;align=left;spacingLeft=2;overflow=hidden;fontSize=11;" vertex="1" parent="oB86rz4Y4QlZCWIwaVJf-365">
          <mxGeometry x="169" width="22" height="49" as="geometry">
            <mxRectangle width="22" height="49" as="alternateBounds" />
          </mxGeometry>
        </mxCell>
        <mxCell id="oB86rz4Y4QlZCWIwaVJf-369" style="shape=tableRow;horizontal=0;startSize=0;swimlaneHead=0;swimlaneBody=0;fillColor=none;collapsible=0;dropTarget=0;points=[[0,0.5],[1,0.5]];portConstraint=eastwest;top=0;left=0;right=0;bottom=0;" vertex="1" parent="oB86rz4Y4QlZCWIwaVJf-360">
          <mxGeometry y="123" width="191" height="49" as="geometry" />
        </mxCell>
        <mxCell id="oB86rz4Y4QlZCWIwaVJf-370" value="array" style="shape=partialRectangle;connectable=0;fillColor=none;top=0;left=0;bottom=0;right=0;align=left;spacingLeft=2;overflow=hidden;fontSize=11;" vertex="1" parent="oB86rz4Y4QlZCWIwaVJf-369">
          <mxGeometry width="36" height="49" as="geometry">
            <mxRectangle width="36" height="49" as="alternateBounds" />
          </mxGeometry>
        </mxCell>
        <mxCell id="oB86rz4Y4QlZCWIwaVJf-371" value="carriers" style="shape=partialRectangle;connectable=0;fillColor=none;top=0;left=0;bottom=0;right=0;align=left;spacingLeft=2;overflow=hidden;fontSize=11;" vertex="1" parent="oB86rz4Y4QlZCWIwaVJf-369">
          <mxGeometry x="36" width="133" height="49" as="geometry">
            <mxRectangle width="133" height="49" as="alternateBounds" />
          </mxGeometry>
        </mxCell>
        <mxCell id="oB86rz4Y4QlZCWIwaVJf-372" value="" style="shape=partialRectangle;connectable=0;fillColor=none;top=0;left=0;bottom=0;right=0;align=left;spacingLeft=2;overflow=hidden;fontSize=11;" vertex="1" parent="oB86rz4Y4QlZCWIwaVJf-369">
          <mxGeometry x="169" width="22" height="49" as="geometry">
            <mxRectangle width="22" height="49" as="alternateBounds" />
          </mxGeometry>
        </mxCell>
        <mxCell id="oB86rz4Y4QlZCWIwaVJf-373" value="App" style="shape=table;startSize=25;container=1;collapsible=0;childLayout=tableLayout;fixedRows=1;rowLines=1;fontStyle=1;align=center;resizeLast=1;" vertex="1" parent="1">
          <mxGeometry x="1747" y="1665" width="214" height="172" as="geometry" />
        </mxCell>
        <mxCell id="oB86rz4Y4QlZCWIwaVJf-374" style="shape=tableRow;horizontal=0;startSize=0;swimlaneHead=0;swimlaneBody=0;fillColor=none;collapsible=0;dropTarget=0;points=[[0,0.5],[1,0.5]];portConstraint=eastwest;top=0;left=0;right=0;bottom=0;" vertex="1" parent="oB86rz4Y4QlZCWIwaVJf-373">
          <mxGeometry y="25" width="214" height="49" as="geometry" />
        </mxCell>
        <mxCell id="oB86rz4Y4QlZCWIwaVJf-375" value="int" style="shape=partialRectangle;connectable=0;fillColor=none;top=0;left=0;bottom=0;right=0;align=left;spacingLeft=2;overflow=hidden;fontSize=11;" vertex="1" parent="oB86rz4Y4QlZCWIwaVJf-374">
          <mxGeometry width="36" height="49" as="geometry">
            <mxRectangle width="36" height="49" as="alternateBounds" />
          </mxGeometry>
        </mxCell>
        <mxCell id="oB86rz4Y4QlZCWIwaVJf-376" value="id" style="shape=partialRectangle;connectable=0;fillColor=none;top=0;left=0;bottom=0;right=0;align=left;spacingLeft=2;overflow=hidden;fontSize=11;" vertex="1" parent="oB86rz4Y4QlZCWIwaVJf-374">
          <mxGeometry x="36" width="156" height="49" as="geometry">
            <mxRectangle width="156" height="49" as="alternateBounds" />
          </mxGeometry>
        </mxCell>
        <mxCell id="oB86rz4Y4QlZCWIwaVJf-377" value="PK" style="shape=partialRectangle;connectable=0;fillColor=none;top=0;left=0;bottom=0;right=0;align=left;spacingLeft=2;overflow=hidden;fontSize=11;" vertex="1" parent="oB86rz4Y4QlZCWIwaVJf-374">
          <mxGeometry x="192" width="22" height="49" as="geometry">
            <mxRectangle width="22" height="49" as="alternateBounds" />
          </mxGeometry>
        </mxCell>
        <mxCell id="oB86rz4Y4QlZCWIwaVJf-378" style="shape=tableRow;horizontal=0;startSize=0;swimlaneHead=0;swimlaneBody=0;fillColor=none;collapsible=0;dropTarget=0;points=[[0,0.5],[1,0.5]];portConstraint=eastwest;top=0;left=0;right=0;bottom=0;" vertex="1" parent="oB86rz4Y4QlZCWIwaVJf-373">
          <mxGeometry y="74" width="214" height="49" as="geometry" />
        </mxCell>
        <mxCell id="oB86rz4Y4QlZCWIwaVJf-379" value="string" style="shape=partialRectangle;connectable=0;fillColor=none;top=0;left=0;bottom=0;right=0;align=left;spacingLeft=2;overflow=hidden;fontSize=11;" vertex="1" parent="oB86rz4Y4QlZCWIwaVJf-378">
          <mxGeometry width="36" height="49" as="geometry">
            <mxRectangle width="36" height="49" as="alternateBounds" />
          </mxGeometry>
        </mxCell>
        <mxCell id="oB86rz4Y4QlZCWIwaVJf-380" value="name" style="shape=partialRectangle;connectable=0;fillColor=none;top=0;left=0;bottom=0;right=0;align=left;spacingLeft=2;overflow=hidden;fontSize=11;" vertex="1" parent="oB86rz4Y4QlZCWIwaVJf-378">
          <mxGeometry x="36" width="156" height="49" as="geometry">
            <mxRectangle width="156" height="49" as="alternateBounds" />
          </mxGeometry>
        </mxCell>
        <mxCell id="oB86rz4Y4QlZCWIwaVJf-381" value="" style="shape=partialRectangle;connectable=0;fillColor=none;top=0;left=0;bottom=0;right=0;align=left;spacingLeft=2;overflow=hidden;fontSize=11;" vertex="1" parent="oB86rz4Y4QlZCWIwaVJf-378">
          <mxGeometry x="192" width="22" height="49" as="geometry">
            <mxRectangle width="22" height="49" as="alternateBounds" />
          </mxGeometry>
        </mxCell>
        <mxCell id="oB86rz4Y4QlZCWIwaVJf-382" style="shape=tableRow;horizontal=0;startSize=0;swimlaneHead=0;swimlaneBody=0;fillColor=none;collapsible=0;dropTarget=0;points=[[0,0.5],[1,0.5]];portConstraint=eastwest;top=0;left=0;right=0;bottom=0;" vertex="1" parent="oB86rz4Y4QlZCWIwaVJf-373">
          <mxGeometry y="123" width="214" height="49" as="geometry" />
        </mxCell>
        <mxCell id="oB86rz4Y4QlZCWIwaVJf-383" value="string" style="shape=partialRectangle;connectable=0;fillColor=none;top=0;left=0;bottom=0;right=0;align=left;spacingLeft=2;overflow=hidden;fontSize=11;" vertex="1" parent="oB86rz4Y4QlZCWIwaVJf-382">
          <mxGeometry width="36" height="49" as="geometry">
            <mxRectangle width="36" height="49" as="alternateBounds" />
          </mxGeometry>
        </mxCell>
        <mxCell id="oB86rz4Y4QlZCWIwaVJf-384" value="package_id" style="shape=partialRectangle;connectable=0;fillColor=none;top=0;left=0;bottom=0;right=0;align=left;spacingLeft=2;overflow=hidden;fontSize=11;" vertex="1" parent="oB86rz4Y4QlZCWIwaVJf-382">
          <mxGeometry x="36" width="156" height="49" as="geometry">
            <mxRectangle width="156" height="49" as="alternateBounds" />
          </mxGeometry>
        </mxCell>
        <mxCell id="oB86rz4Y4QlZCWIwaVJf-385" value="" style="shape=partialRectangle;connectable=0;fillColor=none;top=0;left=0;bottom=0;right=0;align=left;spacingLeft=2;overflow=hidden;fontSize=11;" vertex="1" parent="oB86rz4Y4QlZCWIwaVJf-382">
          <mxGeometry x="192" width="22" height="49" as="geometry">
            <mxRectangle width="22" height="49" as="alternateBounds" />
          </mxGeometry>
        </mxCell>
        <mxCell id="oB86rz4Y4QlZCWIwaVJf-386" value="AppAction" style="shape=table;startSize=25;container=1;collapsible=0;childLayout=tableLayout;fixedRows=1;rowLines=1;fontStyle=1;align=center;resizeLast=1;" vertex="1" parent="1">
          <mxGeometry x="958" y="2002" width="173" height="129" as="geometry" />
        </mxCell>
        <mxCell id="oB86rz4Y4QlZCWIwaVJf-387" style="shape=tableRow;horizontal=0;startSize=0;swimlaneHead=0;swimlaneBody=0;fillColor=none;collapsible=0;dropTarget=0;points=[[0,0.5],[1,0.5]];portConstraint=eastwest;top=0;left=0;right=0;bottom=0;" vertex="1" parent="oB86rz4Y4QlZCWIwaVJf-386">
          <mxGeometry y="25" width="173" height="52" as="geometry" />
        </mxCell>
        <mxCell id="oB86rz4Y4QlZCWIwaVJf-388" value="int" style="shape=partialRectangle;connectable=0;fillColor=none;top=0;left=0;bottom=0;right=0;align=left;spacingLeft=2;overflow=hidden;fontSize=11;" vertex="1" parent="oB86rz4Y4QlZCWIwaVJf-387">
          <mxGeometry width="36" height="52" as="geometry">
            <mxRectangle width="36" height="52" as="alternateBounds" />
          </mxGeometry>
        </mxCell>
        <mxCell id="oB86rz4Y4QlZCWIwaVJf-389" value="id" style="shape=partialRectangle;connectable=0;fillColor=none;top=0;left=0;bottom=0;right=0;align=left;spacingLeft=2;overflow=hidden;fontSize=11;" vertex="1" parent="oB86rz4Y4QlZCWIwaVJf-387">
          <mxGeometry x="36" width="115" height="52" as="geometry">
            <mxRectangle width="115" height="52" as="alternateBounds" />
          </mxGeometry>
        </mxCell>
        <mxCell id="oB86rz4Y4QlZCWIwaVJf-390" value="PK" style="shape=partialRectangle;connectable=0;fillColor=none;top=0;left=0;bottom=0;right=0;align=left;spacingLeft=2;overflow=hidden;fontSize=11;" vertex="1" parent="oB86rz4Y4QlZCWIwaVJf-387">
          <mxGeometry x="151" width="22" height="52" as="geometry">
            <mxRectangle width="22" height="52" as="alternateBounds" />
          </mxGeometry>
        </mxCell>
        <mxCell id="oB86rz4Y4QlZCWIwaVJf-391" style="shape=tableRow;horizontal=0;startSize=0;swimlaneHead=0;swimlaneBody=0;fillColor=none;collapsible=0;dropTarget=0;points=[[0,0.5],[1,0.5]];portConstraint=eastwest;top=0;left=0;right=0;bottom=0;" vertex="1" parent="oB86rz4Y4QlZCWIwaVJf-386">
          <mxGeometry y="77" width="173" height="52" as="geometry" />
        </mxCell>
        <mxCell id="oB86rz4Y4QlZCWIwaVJf-392" value="string" style="shape=partialRectangle;connectable=0;fillColor=none;top=0;left=0;bottom=0;right=0;align=left;spacingLeft=2;overflow=hidden;fontSize=11;" vertex="1" parent="oB86rz4Y4QlZCWIwaVJf-391">
          <mxGeometry width="36" height="52" as="geometry">
            <mxRectangle width="36" height="52" as="alternateBounds" />
          </mxGeometry>
        </mxCell>
        <mxCell id="oB86rz4Y4QlZCWIwaVJf-393" value="name" style="shape=partialRectangle;connectable=0;fillColor=none;top=0;left=0;bottom=0;right=0;align=left;spacingLeft=2;overflow=hidden;fontSize=11;" vertex="1" parent="oB86rz4Y4QlZCWIwaVJf-391">
          <mxGeometry x="36" width="115" height="52" as="geometry">
            <mxRectangle width="115" height="52" as="alternateBounds" />
          </mxGeometry>
        </mxCell>
        <mxCell id="oB86rz4Y4QlZCWIwaVJf-394" value="" style="shape=partialRectangle;connectable=0;fillColor=none;top=0;left=0;bottom=0;right=0;align=left;spacingLeft=2;overflow=hidden;fontSize=11;" vertex="1" parent="oB86rz4Y4QlZCWIwaVJf-391">
          <mxGeometry x="151" width="22" height="52" as="geometry">
            <mxRectangle width="22" height="52" as="alternateBounds" />
          </mxGeometry>
        </mxCell>
        <mxCell id="oB86rz4Y4QlZCWIwaVJf-395" value="Policy" style="shape=table;startSize=25;container=1;collapsible=0;childLayout=tableLayout;fixedRows=1;rowLines=1;fontStyle=1;align=center;resizeLast=1;" vertex="1" parent="1">
          <mxGeometry x="1963" y="1285" width="208" height="214" as="geometry" />
        </mxCell>
        <mxCell id="oB86rz4Y4QlZCWIwaVJf-396" style="shape=tableRow;horizontal=0;startSize=0;swimlaneHead=0;swimlaneBody=0;fillColor=none;collapsible=0;dropTarget=0;points=[[0,0.5],[1,0.5]];portConstraint=eastwest;top=0;left=0;right=0;bottom=0;" vertex="1" parent="oB86rz4Y4QlZCWIwaVJf-395">
          <mxGeometry y="25" width="208" height="47" as="geometry" />
        </mxCell>
        <mxCell id="oB86rz4Y4QlZCWIwaVJf-397" value="int" style="shape=partialRectangle;connectable=0;fillColor=none;top=0;left=0;bottom=0;right=0;align=left;spacingLeft=2;overflow=hidden;fontSize=11;" vertex="1" parent="oB86rz4Y4QlZCWIwaVJf-396">
          <mxGeometry width="18" height="47" as="geometry">
            <mxRectangle width="18" height="47" as="alternateBounds" />
          </mxGeometry>
        </mxCell>
        <mxCell id="oB86rz4Y4QlZCWIwaVJf-398" value="id" style="shape=partialRectangle;connectable=0;fillColor=none;top=0;left=0;bottom=0;right=0;align=left;spacingLeft=2;overflow=hidden;fontSize=11;" vertex="1" parent="oB86rz4Y4QlZCWIwaVJf-396">
          <mxGeometry x="18" width="168" height="47" as="geometry">
            <mxRectangle width="168" height="47" as="alternateBounds" />
          </mxGeometry>
        </mxCell>
        <mxCell id="oB86rz4Y4QlZCWIwaVJf-399" value="PK" style="shape=partialRectangle;connectable=0;fillColor=none;top=0;left=0;bottom=0;right=0;align=left;spacingLeft=2;overflow=hidden;fontSize=11;" vertex="1" parent="oB86rz4Y4QlZCWIwaVJf-396">
          <mxGeometry x="186" width="22" height="47" as="geometry">
            <mxRectangle width="22" height="47" as="alternateBounds" />
          </mxGeometry>
        </mxCell>
        <mxCell id="oB86rz4Y4QlZCWIwaVJf-400" style="shape=tableRow;horizontal=0;startSize=0;swimlaneHead=0;swimlaneBody=0;fillColor=none;collapsible=0;dropTarget=0;points=[[0,0.5],[1,0.5]];portConstraint=eastwest;top=0;left=0;right=0;bottom=0;" vertex="1" parent="oB86rz4Y4QlZCWIwaVJf-395">
          <mxGeometry y="72" width="208" height="47" as="geometry" />
        </mxCell>
        <mxCell id="oB86rz4Y4QlZCWIwaVJf-401" value="int" style="shape=partialRectangle;connectable=0;fillColor=none;top=0;left=0;bottom=0;right=0;align=left;spacingLeft=2;overflow=hidden;fontSize=11;" vertex="1" parent="oB86rz4Y4QlZCWIwaVJf-400">
          <mxGeometry width="18" height="47" as="geometry">
            <mxRectangle width="18" height="47" as="alternateBounds" />
          </mxGeometry>
        </mxCell>
        <mxCell id="oB86rz4Y4QlZCWIwaVJf-402" value="enterprise_id" style="shape=partialRectangle;connectable=0;fillColor=none;top=0;left=0;bottom=0;right=0;align=left;spacingLeft=2;overflow=hidden;fontSize=11;" vertex="1" parent="oB86rz4Y4QlZCWIwaVJf-400">
          <mxGeometry x="18" width="168" height="47" as="geometry">
            <mxRectangle width="168" height="47" as="alternateBounds" />
          </mxGeometry>
        </mxCell>
        <mxCell id="oB86rz4Y4QlZCWIwaVJf-403" value="FK" style="shape=partialRectangle;connectable=0;fillColor=none;top=0;left=0;bottom=0;right=0;align=left;spacingLeft=2;overflow=hidden;fontSize=11;" vertex="1" parent="oB86rz4Y4QlZCWIwaVJf-400">
          <mxGeometry x="186" width="22" height="47" as="geometry">
            <mxRectangle width="22" height="47" as="alternateBounds" />
          </mxGeometry>
        </mxCell>
        <mxCell id="oB86rz4Y4QlZCWIwaVJf-404" style="shape=tableRow;horizontal=0;startSize=0;swimlaneHead=0;swimlaneBody=0;fillColor=none;collapsible=0;dropTarget=0;points=[[0,0.5],[1,0.5]];portConstraint=eastwest;top=0;left=0;right=0;bottom=0;" vertex="1" parent="oB86rz4Y4QlZCWIwaVJf-395">
          <mxGeometry y="119" width="208" height="47" as="geometry" />
        </mxCell>
        <mxCell id="oB86rz4Y4QlZCWIwaVJf-405" value="int" style="shape=partialRectangle;connectable=0;fillColor=none;top=0;left=0;bottom=0;right=0;align=left;spacingLeft=2;overflow=hidden;fontSize=11;" vertex="1" parent="oB86rz4Y4QlZCWIwaVJf-404">
          <mxGeometry width="18" height="47" as="geometry">
            <mxRectangle width="18" height="47" as="alternateBounds" />
          </mxGeometry>
        </mxCell>
        <mxCell id="oB86rz4Y4QlZCWIwaVJf-406" value="app_id" style="shape=partialRectangle;connectable=0;fillColor=none;top=0;left=0;bottom=0;right=0;align=left;spacingLeft=2;overflow=hidden;fontSize=11;" vertex="1" parent="oB86rz4Y4QlZCWIwaVJf-404">
          <mxGeometry x="18" width="168" height="47" as="geometry">
            <mxRectangle width="168" height="47" as="alternateBounds" />
          </mxGeometry>
        </mxCell>
        <mxCell id="oB86rz4Y4QlZCWIwaVJf-407" value="FK" style="shape=partialRectangle;connectable=0;fillColor=none;top=0;left=0;bottom=0;right=0;align=left;spacingLeft=2;overflow=hidden;fontSize=11;" vertex="1" parent="oB86rz4Y4QlZCWIwaVJf-404">
          <mxGeometry x="186" width="22" height="47" as="geometry">
            <mxRectangle width="22" height="47" as="alternateBounds" />
          </mxGeometry>
        </mxCell>
        <mxCell id="oB86rz4Y4QlZCWIwaVJf-408" style="shape=tableRow;horizontal=0;startSize=0;swimlaneHead=0;swimlaneBody=0;fillColor=none;collapsible=0;dropTarget=0;points=[[0,0.5],[1,0.5]];portConstraint=eastwest;top=0;left=0;right=0;bottom=0;" vertex="1" parent="oB86rz4Y4QlZCWIwaVJf-395">
          <mxGeometry y="166" width="208" height="47" as="geometry" />
        </mxCell>
        <mxCell id="oB86rz4Y4QlZCWIwaVJf-409" value="int" style="shape=partialRectangle;connectable=0;fillColor=none;top=0;left=0;bottom=0;right=0;align=left;spacingLeft=2;overflow=hidden;fontSize=11;" vertex="1" parent="oB86rz4Y4QlZCWIwaVJf-408">
          <mxGeometry width="18" height="47" as="geometry">
            <mxRectangle width="18" height="47" as="alternateBounds" />
          </mxGeometry>
        </mxCell>
        <mxCell id="oB86rz4Y4QlZCWIwaVJf-410" value="role_id" style="shape=partialRectangle;connectable=0;fillColor=none;top=0;left=0;bottom=0;right=0;align=left;spacingLeft=2;overflow=hidden;fontSize=11;" vertex="1" parent="oB86rz4Y4QlZCWIwaVJf-408">
          <mxGeometry x="18" width="168" height="47" as="geometry">
            <mxRectangle width="168" height="47" as="alternateBounds" />
          </mxGeometry>
        </mxCell>
        <mxCell id="oB86rz4Y4QlZCWIwaVJf-411" value="FK" style="shape=partialRectangle;connectable=0;fillColor=none;top=0;left=0;bottom=0;right=0;align=left;spacingLeft=2;overflow=hidden;fontSize=11;" vertex="1" parent="oB86rz4Y4QlZCWIwaVJf-408">
          <mxGeometry x="186" width="22" height="47" as="geometry">
            <mxRectangle width="22" height="47" as="alternateBounds" />
          </mxGeometry>
        </mxCell>
        <mxCell id="oB86rz4Y4QlZCWIwaVJf-412" value="Rule" style="shape=table;startSize=25;container=1;collapsible=0;childLayout=tableLayout;fixedRows=1;rowLines=1;fontStyle=1;align=center;resizeLast=1;" vertex="1" parent="1">
          <mxGeometry x="2101" y="1643" width="207" height="214" as="geometry" />
        </mxCell>
        <mxCell id="oB86rz4Y4QlZCWIwaVJf-413" style="shape=tableRow;horizontal=0;startSize=0;swimlaneHead=0;swimlaneBody=0;fillColor=none;collapsible=0;dropTarget=0;points=[[0,0.5],[1,0.5]];portConstraint=eastwest;top=0;left=0;right=0;bottom=0;" vertex="1" parent="oB86rz4Y4QlZCWIwaVJf-412">
          <mxGeometry y="25" width="207" height="47" as="geometry" />
        </mxCell>
        <mxCell id="oB86rz4Y4QlZCWIwaVJf-414" value="int" style="shape=partialRectangle;connectable=0;fillColor=none;top=0;left=0;bottom=0;right=0;align=left;spacingLeft=2;overflow=hidden;fontSize=11;" vertex="1" parent="oB86rz4Y4QlZCWIwaVJf-413">
          <mxGeometry width="36" height="47" as="geometry">
            <mxRectangle width="36" height="47" as="alternateBounds" />
          </mxGeometry>
        </mxCell>
        <mxCell id="oB86rz4Y4QlZCWIwaVJf-415" value="id" style="shape=partialRectangle;connectable=0;fillColor=none;top=0;left=0;bottom=0;right=0;align=left;spacingLeft=2;overflow=hidden;fontSize=11;" vertex="1" parent="oB86rz4Y4QlZCWIwaVJf-413">
          <mxGeometry x="36" width="149" height="47" as="geometry">
            <mxRectangle width="149" height="47" as="alternateBounds" />
          </mxGeometry>
        </mxCell>
        <mxCell id="oB86rz4Y4QlZCWIwaVJf-416" value="PK" style="shape=partialRectangle;connectable=0;fillColor=none;top=0;left=0;bottom=0;right=0;align=left;spacingLeft=2;overflow=hidden;fontSize=11;" vertex="1" parent="oB86rz4Y4QlZCWIwaVJf-413">
          <mxGeometry x="185" width="22" height="47" as="geometry">
            <mxRectangle width="22" height="47" as="alternateBounds" />
          </mxGeometry>
        </mxCell>
        <mxCell id="oB86rz4Y4QlZCWIwaVJf-417" style="shape=tableRow;horizontal=0;startSize=0;swimlaneHead=0;swimlaneBody=0;fillColor=none;collapsible=0;dropTarget=0;points=[[0,0.5],[1,0.5]];portConstraint=eastwest;top=0;left=0;right=0;bottom=0;" vertex="1" parent="oB86rz4Y4QlZCWIwaVJf-412">
          <mxGeometry y="72" width="207" height="47" as="geometry" />
        </mxCell>
        <mxCell id="oB86rz4Y4QlZCWIwaVJf-418" value="int" style="shape=partialRectangle;connectable=0;fillColor=none;top=0;left=0;bottom=0;right=0;align=left;spacingLeft=2;overflow=hidden;fontSize=11;" vertex="1" parent="oB86rz4Y4QlZCWIwaVJf-417">
          <mxGeometry width="36" height="47" as="geometry">
            <mxRectangle width="36" height="47" as="alternateBounds" />
          </mxGeometry>
        </mxCell>
        <mxCell id="oB86rz4Y4QlZCWIwaVJf-419" value="policy_id" style="shape=partialRectangle;connectable=0;fillColor=none;top=0;left=0;bottom=0;right=0;align=left;spacingLeft=2;overflow=hidden;fontSize=11;" vertex="1" parent="oB86rz4Y4QlZCWIwaVJf-417">
          <mxGeometry x="36" width="149" height="47" as="geometry">
            <mxRectangle width="149" height="47" as="alternateBounds" />
          </mxGeometry>
        </mxCell>
        <mxCell id="oB86rz4Y4QlZCWIwaVJf-420" value="FK" style="shape=partialRectangle;connectable=0;fillColor=none;top=0;left=0;bottom=0;right=0;align=left;spacingLeft=2;overflow=hidden;fontSize=11;" vertex="1" parent="oB86rz4Y4QlZCWIwaVJf-417">
          <mxGeometry x="185" width="22" height="47" as="geometry">
            <mxRectangle width="22" height="47" as="alternateBounds" />
          </mxGeometry>
        </mxCell>
        <mxCell id="oB86rz4Y4QlZCWIwaVJf-421" style="shape=tableRow;horizontal=0;startSize=0;swimlaneHead=0;swimlaneBody=0;fillColor=none;collapsible=0;dropTarget=0;points=[[0,0.5],[1,0.5]];portConstraint=eastwest;top=0;left=0;right=0;bottom=0;" vertex="1" parent="oB86rz4Y4QlZCWIwaVJf-412">
          <mxGeometry y="119" width="207" height="47" as="geometry" />
        </mxCell>
        <mxCell id="oB86rz4Y4QlZCWIwaVJf-422" value="string" style="shape=partialRectangle;connectable=0;fillColor=none;top=0;left=0;bottom=0;right=0;align=left;spacingLeft=2;overflow=hidden;fontSize=11;" vertex="1" parent="oB86rz4Y4QlZCWIwaVJf-421">
          <mxGeometry width="36" height="47" as="geometry">
            <mxRectangle width="36" height="47" as="alternateBounds" />
          </mxGeometry>
        </mxCell>
        <mxCell id="oB86rz4Y4QlZCWIwaVJf-423" value="name" style="shape=partialRectangle;connectable=0;fillColor=none;top=0;left=0;bottom=0;right=0;align=left;spacingLeft=2;overflow=hidden;fontSize=11;" vertex="1" parent="oB86rz4Y4QlZCWIwaVJf-421">
          <mxGeometry x="36" width="149" height="47" as="geometry">
            <mxRectangle width="149" height="47" as="alternateBounds" />
          </mxGeometry>
        </mxCell>
        <mxCell id="oB86rz4Y4QlZCWIwaVJf-424" value="" style="shape=partialRectangle;connectable=0;fillColor=none;top=0;left=0;bottom=0;right=0;align=left;spacingLeft=2;overflow=hidden;fontSize=11;" vertex="1" parent="oB86rz4Y4QlZCWIwaVJf-421">
          <mxGeometry x="185" width="22" height="47" as="geometry">
            <mxRectangle width="22" height="47" as="alternateBounds" />
          </mxGeometry>
        </mxCell>
        <mxCell id="oB86rz4Y4QlZCWIwaVJf-425" style="shape=tableRow;horizontal=0;startSize=0;swimlaneHead=0;swimlaneBody=0;fillColor=none;collapsible=0;dropTarget=0;points=[[0,0.5],[1,0.5]];portConstraint=eastwest;top=0;left=0;right=0;bottom=0;" vertex="1" parent="oB86rz4Y4QlZCWIwaVJf-412">
          <mxGeometry y="166" width="207" height="47" as="geometry" />
        </mxCell>
        <mxCell id="oB86rz4Y4QlZCWIwaVJf-426" value="jsonb" style="shape=partialRectangle;connectable=0;fillColor=none;top=0;left=0;bottom=0;right=0;align=left;spacingLeft=2;overflow=hidden;fontSize=11;" vertex="1" parent="oB86rz4Y4QlZCWIwaVJf-425">
          <mxGeometry width="36" height="47" as="geometry">
            <mxRectangle width="36" height="47" as="alternateBounds" />
          </mxGeometry>
        </mxCell>
        <mxCell id="oB86rz4Y4QlZCWIwaVJf-427" value="conditions" style="shape=partialRectangle;connectable=0;fillColor=none;top=0;left=0;bottom=0;right=0;align=left;spacingLeft=2;overflow=hidden;fontSize=11;" vertex="1" parent="oB86rz4Y4QlZCWIwaVJf-425">
          <mxGeometry x="36" width="149" height="47" as="geometry">
            <mxRectangle width="149" height="47" as="alternateBounds" />
          </mxGeometry>
        </mxCell>
        <mxCell id="oB86rz4Y4QlZCWIwaVJf-428" value="" style="shape=partialRectangle;connectable=0;fillColor=none;top=0;left=0;bottom=0;right=0;align=left;spacingLeft=2;overflow=hidden;fontSize=11;" vertex="1" parent="oB86rz4Y4QlZCWIwaVJf-425">
          <mxGeometry x="185" width="22" height="47" as="geometry">
            <mxRectangle width="22" height="47" as="alternateBounds" />
          </mxGeometry>
        </mxCell>
        <mxCell id="oB86rz4Y4QlZCWIwaVJf-438" value="ActionEvent" style="shape=table;startSize=25;container=1;collapsible=0;childLayout=tableLayout;fixedRows=1;rowLines=1;fontStyle=1;align=center;resizeLast=1;" vertex="1" parent="1">
          <mxGeometry x="787" y="1601" width="271" height="301" as="geometry" />
        </mxCell>
        <mxCell id="oB86rz4Y4QlZCWIwaVJf-439" style="shape=tableRow;horizontal=0;startSize=0;swimlaneHead=0;swimlaneBody=0;fillColor=none;collapsible=0;dropTarget=0;points=[[0,0.5],[1,0.5]];portConstraint=eastwest;top=0;left=0;right=0;bottom=0;" vertex="1" parent="oB86rz4Y4QlZCWIwaVJf-438">
          <mxGeometry y="25" width="271" height="46" as="geometry" />
        </mxCell>
        <mxCell id="oB86rz4Y4QlZCWIwaVJf-440" value="int" style="shape=partialRectangle;connectable=0;fillColor=none;top=0;left=0;bottom=0;right=0;align=left;spacingLeft=2;overflow=hidden;fontSize=11;" vertex="1" parent="oB86rz4Y4QlZCWIwaVJf-439">
          <mxGeometry width="54" height="46" as="geometry">
            <mxRectangle width="54" height="46" as="alternateBounds" />
          </mxGeometry>
        </mxCell>
        <mxCell id="oB86rz4Y4QlZCWIwaVJf-441" value="id" style="shape=partialRectangle;connectable=0;fillColor=none;top=0;left=0;bottom=0;right=0;align=left;spacingLeft=2;overflow=hidden;fontSize=11;" vertex="1" parent="oB86rz4Y4QlZCWIwaVJf-439">
          <mxGeometry x="54" width="195" height="46" as="geometry">
            <mxRectangle width="195" height="46" as="alternateBounds" />
          </mxGeometry>
        </mxCell>
        <mxCell id="oB86rz4Y4QlZCWIwaVJf-442" value="PK" style="shape=partialRectangle;connectable=0;fillColor=none;top=0;left=0;bottom=0;right=0;align=left;spacingLeft=2;overflow=hidden;fontSize=11;" vertex="1" parent="oB86rz4Y4QlZCWIwaVJf-439">
          <mxGeometry x="249" width="22" height="46" as="geometry">
            <mxRectangle width="22" height="46" as="alternateBounds" />
          </mxGeometry>
        </mxCell>
        <mxCell id="oB86rz4Y4QlZCWIwaVJf-443" style="shape=tableRow;horizontal=0;startSize=0;swimlaneHead=0;swimlaneBody=0;fillColor=none;collapsible=0;dropTarget=0;points=[[0,0.5],[1,0.5]];portConstraint=eastwest;top=0;left=0;right=0;bottom=0;" vertex="1" parent="oB86rz4Y4QlZCWIwaVJf-438">
          <mxGeometry y="71" width="271" height="46" as="geometry" />
        </mxCell>
        <mxCell id="oB86rz4Y4QlZCWIwaVJf-444" value="int" style="shape=partialRectangle;connectable=0;fillColor=none;top=0;left=0;bottom=0;right=0;align=left;spacingLeft=2;overflow=hidden;fontSize=11;" vertex="1" parent="oB86rz4Y4QlZCWIwaVJf-443">
          <mxGeometry width="54" height="46" as="geometry">
            <mxRectangle width="54" height="46" as="alternateBounds" />
          </mxGeometry>
        </mxCell>
        <mxCell id="oB86rz4Y4QlZCWIwaVJf-445" value="device_id" style="shape=partialRectangle;connectable=0;fillColor=none;top=0;left=0;bottom=0;right=0;align=left;spacingLeft=2;overflow=hidden;fontSize=11;" vertex="1" parent="oB86rz4Y4QlZCWIwaVJf-443">
          <mxGeometry x="54" width="195" height="46" as="geometry">
            <mxRectangle width="195" height="46" as="alternateBounds" />
          </mxGeometry>
        </mxCell>
        <mxCell id="oB86rz4Y4QlZCWIwaVJf-446" value="FK" style="shape=partialRectangle;connectable=0;fillColor=none;top=0;left=0;bottom=0;right=0;align=left;spacingLeft=2;overflow=hidden;fontSize=11;" vertex="1" parent="oB86rz4Y4QlZCWIwaVJf-443">
          <mxGeometry x="249" width="22" height="46" as="geometry">
            <mxRectangle width="22" height="46" as="alternateBounds" />
          </mxGeometry>
        </mxCell>
        <mxCell id="oB86rz4Y4QlZCWIwaVJf-447" style="shape=tableRow;horizontal=0;startSize=0;swimlaneHead=0;swimlaneBody=0;fillColor=none;collapsible=0;dropTarget=0;points=[[0,0.5],[1,0.5]];portConstraint=eastwest;top=0;left=0;right=0;bottom=0;" vertex="1" parent="oB86rz4Y4QlZCWIwaVJf-438">
          <mxGeometry y="117" width="271" height="46" as="geometry" />
        </mxCell>
        <mxCell id="oB86rz4Y4QlZCWIwaVJf-448" value="int" style="shape=partialRectangle;connectable=0;fillColor=none;top=0;left=0;bottom=0;right=0;align=left;spacingLeft=2;overflow=hidden;fontSize=11;" vertex="1" parent="oB86rz4Y4QlZCWIwaVJf-447">
          <mxGeometry width="54" height="46" as="geometry">
            <mxRectangle width="54" height="46" as="alternateBounds" />
          </mxGeometry>
        </mxCell>
        <mxCell id="oB86rz4Y4QlZCWIwaVJf-449" value="user_id" style="shape=partialRectangle;connectable=0;fillColor=none;top=0;left=0;bottom=0;right=0;align=left;spacingLeft=2;overflow=hidden;fontSize=11;" vertex="1" parent="oB86rz4Y4QlZCWIwaVJf-447">
          <mxGeometry x="54" width="195" height="46" as="geometry">
            <mxRectangle width="195" height="46" as="alternateBounds" />
          </mxGeometry>
        </mxCell>
        <mxCell id="oB86rz4Y4QlZCWIwaVJf-450" value="FK" style="shape=partialRectangle;connectable=0;fillColor=none;top=0;left=0;bottom=0;right=0;align=left;spacingLeft=2;overflow=hidden;fontSize=11;" vertex="1" parent="oB86rz4Y4QlZCWIwaVJf-447">
          <mxGeometry x="249" width="22" height="46" as="geometry">
            <mxRectangle width="22" height="46" as="alternateBounds" />
          </mxGeometry>
        </mxCell>
        <mxCell id="oB86rz4Y4QlZCWIwaVJf-451" style="shape=tableRow;horizontal=0;startSize=0;swimlaneHead=0;swimlaneBody=0;fillColor=none;collapsible=0;dropTarget=0;points=[[0,0.5],[1,0.5]];portConstraint=eastwest;top=0;left=0;right=0;bottom=0;" vertex="1" parent="oB86rz4Y4QlZCWIwaVJf-438">
          <mxGeometry y="163" width="271" height="46" as="geometry" />
        </mxCell>
        <mxCell id="oB86rz4Y4QlZCWIwaVJf-452" value="int" style="shape=partialRectangle;connectable=0;fillColor=none;top=0;left=0;bottom=0;right=0;align=left;spacingLeft=2;overflow=hidden;fontSize=11;" vertex="1" parent="oB86rz4Y4QlZCWIwaVJf-451">
          <mxGeometry width="54" height="46" as="geometry">
            <mxRectangle width="54" height="46" as="alternateBounds" />
          </mxGeometry>
        </mxCell>
        <mxCell id="oB86rz4Y4QlZCWIwaVJf-453" value="app_action_id" style="shape=partialRectangle;connectable=0;fillColor=none;top=0;left=0;bottom=0;right=0;align=left;spacingLeft=2;overflow=hidden;fontSize=11;" vertex="1" parent="oB86rz4Y4QlZCWIwaVJf-451">
          <mxGeometry x="54" width="195" height="46" as="geometry">
            <mxRectangle width="195" height="46" as="alternateBounds" />
          </mxGeometry>
        </mxCell>
        <mxCell id="oB86rz4Y4QlZCWIwaVJf-454" value="FK" style="shape=partialRectangle;connectable=0;fillColor=none;top=0;left=0;bottom=0;right=0;align=left;spacingLeft=2;overflow=hidden;fontSize=11;" vertex="1" parent="oB86rz4Y4QlZCWIwaVJf-451">
          <mxGeometry x="249" width="22" height="46" as="geometry">
            <mxRectangle width="22" height="46" as="alternateBounds" />
          </mxGeometry>
        </mxCell>
        <mxCell id="oB86rz4Y4QlZCWIwaVJf-455" style="shape=tableRow;horizontal=0;startSize=0;swimlaneHead=0;swimlaneBody=0;fillColor=none;collapsible=0;dropTarget=0;points=[[0,0.5],[1,0.5]];portConstraint=eastwest;top=0;left=0;right=0;bottom=0;" vertex="1" parent="oB86rz4Y4QlZCWIwaVJf-438">
          <mxGeometry y="209" width="271" height="46" as="geometry" />
        </mxCell>
        <mxCell id="oB86rz4Y4QlZCWIwaVJf-456" value="string" style="shape=partialRectangle;connectable=0;fillColor=none;top=0;left=0;bottom=0;right=0;align=left;spacingLeft=2;overflow=hidden;fontSize=11;" vertex="1" parent="oB86rz4Y4QlZCWIwaVJf-455">
          <mxGeometry width="54" height="46" as="geometry">
            <mxRectangle width="54" height="46" as="alternateBounds" />
          </mxGeometry>
        </mxCell>
        <mxCell id="oB86rz4Y4QlZCWIwaVJf-457" value="status" style="shape=partialRectangle;connectable=0;fillColor=none;top=0;left=0;bottom=0;right=0;align=left;spacingLeft=2;overflow=hidden;fontSize=11;" vertex="1" parent="oB86rz4Y4QlZCWIwaVJf-455">
          <mxGeometry x="54" width="195" height="46" as="geometry">
            <mxRectangle width="195" height="46" as="alternateBounds" />
          </mxGeometry>
        </mxCell>
        <mxCell id="oB86rz4Y4QlZCWIwaVJf-458" value="" style="shape=partialRectangle;connectable=0;fillColor=none;top=0;left=0;bottom=0;right=0;align=left;spacingLeft=2;overflow=hidden;fontSize=11;" vertex="1" parent="oB86rz4Y4QlZCWIwaVJf-455">
          <mxGeometry x="249" width="22" height="46" as="geometry">
            <mxRectangle width="22" height="46" as="alternateBounds" />
          </mxGeometry>
        </mxCell>
        <mxCell id="oB86rz4Y4QlZCWIwaVJf-459" style="shape=tableRow;horizontal=0;startSize=0;swimlaneHead=0;swimlaneBody=0;fillColor=none;collapsible=0;dropTarget=0;points=[[0,0.5],[1,0.5]];portConstraint=eastwest;top=0;left=0;right=0;bottom=0;" vertex="1" parent="oB86rz4Y4QlZCWIwaVJf-438">
          <mxGeometry y="255" width="271" height="46" as="geometry" />
        </mxCell>
        <mxCell id="oB86rz4Y4QlZCWIwaVJf-460" value="timestamp" style="shape=partialRectangle;connectable=0;fillColor=none;top=0;left=0;bottom=0;right=0;align=left;spacingLeft=2;overflow=hidden;fontSize=11;" vertex="1" parent="oB86rz4Y4QlZCWIwaVJf-459">
          <mxGeometry width="54" height="46" as="geometry">
            <mxRectangle width="54" height="46" as="alternateBounds" />
          </mxGeometry>
        </mxCell>
        <mxCell id="oB86rz4Y4QlZCWIwaVJf-461" value="timestamp" style="shape=partialRectangle;connectable=0;fillColor=none;top=0;left=0;bottom=0;right=0;align=left;spacingLeft=2;overflow=hidden;fontSize=11;" vertex="1" parent="oB86rz4Y4QlZCWIwaVJf-459">
          <mxGeometry x="54" width="195" height="46" as="geometry">
            <mxRectangle width="195" height="46" as="alternateBounds" />
          </mxGeometry>
        </mxCell>
        <mxCell id="oB86rz4Y4QlZCWIwaVJf-462" value="" style="shape=partialRectangle;connectable=0;fillColor=none;top=0;left=0;bottom=0;right=0;align=left;spacingLeft=2;overflow=hidden;fontSize=11;" vertex="1" parent="oB86rz4Y4QlZCWIwaVJf-459">
          <mxGeometry x="249" width="22" height="46" as="geometry">
            <mxRectangle width="22" height="46" as="alternateBounds" />
          </mxGeometry>
        </mxCell>
        <mxCell id="oB86rz4Y4QlZCWIwaVJf-463" value="subscribed_by" style="curved=1;startArrow=ERmandOne;startSize=10;;endArrow=ERmandOne;endSize=10;;exitX=0.5;exitY=1;entryX=0.5;entryY=0;rounded=0;" edge="1" parent="1" source="oB86rz4Y4QlZCWIwaVJf-244" target="oB86rz4Y4QlZCWIwaVJf-257">
          <mxGeometry relative="1" as="geometry">
            <Array as="points" />
          </mxGeometry>
        </mxCell>
        <mxCell id="oB86rz4Y4QlZCWIwaVJf-464" value="contains" style="curved=1;startArrow=ERmandOne;startSize=10;;endArrow=ERzeroToMany;endSize=10;;exitX=0;exitY=0.62;entryX=0.5;entryY=0;rounded=0;" edge="1" parent="1" source="oB86rz4Y4QlZCWIwaVJf-257" target="oB86rz4Y4QlZCWIwaVJf-270">
          <mxGeometry relative="1" as="geometry">
            <Array as="points" />
          </mxGeometry>
        </mxCell>
        <mxCell id="oB86rz4Y4QlZCWIwaVJf-465" value="defines" style="curved=1;startArrow=ERmandOne;startSize=10;;endArrow=ERzeroToMany;endSize=10;;exitX=0.75;exitY=1;entryX=0.5;entryY=0;rounded=0;" edge="1" parent="1" source="oB86rz4Y4QlZCWIwaVJf-257" target="oB86rz4Y4QlZCWIwaVJf-287">
          <mxGeometry relative="1" as="geometry">
            <Array as="points">
              <mxPoint x="1493" y="516" />
            </Array>
          </mxGeometry>
        </mxCell>
        <mxCell id="oB86rz4Y4QlZCWIwaVJf-466" value="manages" style="curved=1;startArrow=ERmandOne;startSize=10;;endArrow=ERzeroToMany;endSize=10;;exitX=1;exitY=0.76;entryX=0.5;entryY=0;rounded=0;" edge="1" parent="1" source="oB86rz4Y4QlZCWIwaVJf-257" target="oB86rz4Y4QlZCWIwaVJf-300">
          <mxGeometry x="0.2099" y="-31" relative="1" as="geometry">
            <Array as="points">
              <mxPoint x="1771" y="516" />
            </Array>
            <mxPoint y="1" as="offset" />
          </mxGeometry>
        </mxCell>
        <mxCell id="oB86rz4Y4QlZCWIwaVJf-467" value="assigned_to" style="curved=1;startArrow=ERmandOne;startSize=10;;endArrow=ERzeroToMany;endSize=10;;exitX=0;exitY=0.82;entryX=0.5;entryY=0;rounded=0;" edge="1" parent="1" source="oB86rz4Y4QlZCWIwaVJf-270" target="oB86rz4Y4QlZCWIwaVJf-313">
          <mxGeometry relative="1" as="geometry">
            <Array as="points">
              <mxPoint x="333" y="832" />
            </Array>
          </mxGeometry>
        </mxCell>
        <mxCell id="oB86rz4Y4QlZCWIwaVJf-468" value="connects_via" style="curved=1;startArrow=ERoneToMany;startSize=10;;endArrow=ERmandOne;endSize=10;;exitX=0;exitY=0.84;entryX=0.5;entryY=0;rounded=0;" edge="1" parent="1" source="oB86rz4Y4QlZCWIwaVJf-313" target="oB86rz4Y4QlZCWIwaVJf-338">
          <mxGeometry relative="1" as="geometry">
            <Array as="points">
              <mxPoint x="106" y="1233" />
            </Array>
          </mxGeometry>
        </mxCell>
        <mxCell id="oB86rz4Y4QlZCWIwaVJf-469" value="based_on" style="curved=1;startArrow=ERoneToMany;startSize=10;;endArrow=ERzeroToOne;endSize=10;;exitX=0.5;exitY=1;entryX=0.5;entryY=0;rounded=0;" edge="1" parent="1" source="oB86rz4Y4QlZCWIwaVJf-313" target="oB86rz4Y4QlZCWIwaVJf-347">
          <mxGeometry relative="1" as="geometry">
            <Array as="points">
              <mxPoint x="334" y="1233" />
            </Array>
          </mxGeometry>
        </mxCell>
        <mxCell id="oB86rz4Y4QlZCWIwaVJf-470" value="groups" style="curved=1;startArrow=ERmandOne;startSize=10;;endArrow=ERzeroToMany;endSize=10;;exitX=0.5;exitY=1;entryX=1;entryY=0.35;rounded=0;" edge="1" parent="1" source="oB86rz4Y4QlZCWIwaVJf-300" target="oB86rz4Y4QlZCWIwaVJf-360">
          <mxGeometry relative="1" as="geometry">
            <Array as="points">
              <mxPoint x="1771" y="1233" />
            </Array>
          </mxGeometry>
        </mxCell>
        <mxCell id="oB86rz4Y4QlZCWIwaVJf-471" value="supports" style="curved=1;startArrow=ERmandOne;startSize=10;;endArrow=ERzeroToMany;endSize=10;;exitX=0;exitY=0.84;entryX=1;entryY=0.34;rounded=0;" edge="1" parent="1" source="oB86rz4Y4QlZCWIwaVJf-360" target="oB86rz4Y4QlZCWIwaVJf-338">
          <mxGeometry relative="1" as="geometry">
            <Array as="points">
              <mxPoint x="936" y="1550" />
            </Array>
          </mxGeometry>
        </mxCell>
        <mxCell id="oB86rz4Y4QlZCWIwaVJf-472" value="connects_to" style="curved=1;startArrow=ERmandOne;startSize=10;;endArrow=ERzeroToMany;endSize=10;;exitX=1.002;exitY=0.185;entryX=0;entryY=0.38;rounded=0;exitDx=0;exitDy=0;exitPerimeter=0;" edge="1" parent="1" source="oB86rz4Y4QlZCWIwaVJf-326" target="oB86rz4Y4QlZCWIwaVJf-360">
          <mxGeometry relative="1" as="geometry">
            <Array as="points" />
          </mxGeometry>
        </mxCell>
        <mxCell id="oB86rz4Y4QlZCWIwaVJf-473" value="supports" style="curved=1;startArrow=ERmandOne;startSize=10;;endArrow=ERzeroToMany;endSize=10;;exitX=0.5;exitY=1;entryX=1;entryY=0.41;rounded=0;" edge="1" parent="1" source="oB86rz4Y4QlZCWIwaVJf-373" target="oB86rz4Y4QlZCWIwaVJf-386">
          <mxGeometry relative="1" as="geometry">
            <Array as="points">
              <mxPoint x="1854" y="1951" />
            </Array>
          </mxGeometry>
        </mxCell>
        <mxCell id="oB86rz4Y4QlZCWIwaVJf-474" value="performs" style="curved=1;startArrow=ERmandOne;startSize=10;;endArrow=ERzeroToMany;endSize=10;;entryX=0;entryY=0.75;rounded=0;exitX=0.018;exitY=1.051;exitDx=0;exitDy=0;exitPerimeter=0;entryDx=0;entryDy=0;" edge="1" parent="1" source="oB86rz4Y4QlZCWIwaVJf-283" target="oB86rz4Y4QlZCWIwaVJf-386">
          <mxGeometry relative="1" as="geometry">
            <Array as="points">
              <mxPoint x="707" y="832" />
              <mxPoint x="620" y="2200" />
            </Array>
            <mxPoint x="850" y="814" as="sourcePoint" />
          </mxGeometry>
        </mxCell>
        <mxCell id="oB86rz4Y4QlZCWIwaVJf-475" value="creates" style="curved=1;startArrow=ERmandOne;startSize=10;;endArrow=ERzeroToMany;endSize=10;;exitX=1;exitY=0.65;entryX=0.5;entryY=0;rounded=0;" edge="1" parent="1" source="oB86rz4Y4QlZCWIwaVJf-257" target="oB86rz4Y4QlZCWIwaVJf-395">
          <mxGeometry x="0.2714" y="-78" relative="1" as="geometry">
            <Array as="points">
              <mxPoint x="2068" y="516" />
            </Array>
            <mxPoint y="1" as="offset" />
          </mxGeometry>
        </mxCell>
        <mxCell id="oB86rz4Y4QlZCWIwaVJf-476" value="governs" style="curved=1;startArrow=ERoneToMany;startSize=10;;endArrow=ERmandOne;endSize=10;;exitX=0;exitY=0.86;entryX=0.5;entryY=0;rounded=0;" edge="1" parent="1" source="oB86rz4Y4QlZCWIwaVJf-395" target="oB86rz4Y4QlZCWIwaVJf-373">
          <mxGeometry x="0.0167" y="3" relative="1" as="geometry">
            <Array as="points" />
            <mxPoint as="offset" />
          </mxGeometry>
        </mxCell>
        <mxCell id="oB86rz4Y4QlZCWIwaVJf-477" value="applies_to" style="curved=1;startArrow=ERoneToMany;startSize=10;;endArrow=ERmandOne;endSize=10;;exitX=-0.033;exitY=0.553;entryX=1;entryY=0.25;rounded=0;exitDx=0;exitDy=0;exitPerimeter=0;" edge="1" parent="1" source="oB86rz4Y4QlZCWIwaVJf-400" target="oB86rz4Y4QlZCWIwaVJf-287">
          <mxGeometry relative="1" as="geometry">
            <Array as="points" />
          </mxGeometry>
        </mxCell>
        <mxCell id="oB86rz4Y4QlZCWIwaVJf-478" value="contains" style="curved=1;startArrow=ERmandOne;startSize=10;;endArrow=ERzeroToMany;endSize=10;;exitX=0.95;exitY=1;entryX=0.5;entryY=0;rounded=0;" edge="1" parent="1" source="oB86rz4Y4QlZCWIwaVJf-395" target="oB86rz4Y4QlZCWIwaVJf-412">
          <mxGeometry relative="1" as="geometry">
            <Array as="points">
              <mxPoint x="2205" y="1550" />
            </Array>
          </mxGeometry>
        </mxCell>
        <mxCell id="oB86rz4Y4QlZCWIwaVJf-479" value="initiates" style="curved=1;startArrow=ERoneToMany;startSize=10;;endArrow=ERzeroToOne;endSize=10;;exitX=0.5;exitY=1;entryX=1;entryY=0.33;rounded=0;" edge="1" parent="1" source="oB86rz4Y4QlZCWIwaVJf-412" target="oB86rz4Y4QlZCWIwaVJf-429">
          <mxGeometry x="0.0501" y="-9" relative="1" as="geometry">
            <Array as="points">
              <mxPoint x="2205" y="1951" />
            </Array>
            <mxPoint as="offset" />
          </mxGeometry>
        </mxCell>
        <mxCell id="oB86rz4Y4QlZCWIwaVJf-481" value="generates" style="curved=1;startArrow=ERmandOne;startSize=10;;endArrow=ERzeroToMany;endSize=10;;exitX=0.212;exitY=1.011;entryX=1;entryY=0;rounded=0;exitDx=0;exitDy=0;exitPerimeter=0;entryDx=0;entryDy=0;" edge="1" parent="1" source="oB86rz4Y4QlZCWIwaVJf-369" target="oB86rz4Y4QlZCWIwaVJf-438">
          <mxGeometry relative="1" as="geometry">
            <Array as="points" />
          </mxGeometry>
        </mxCell>
        <mxCell id="oB86rz4Y4QlZCWIwaVJf-482" value="from_device" style="curved=1;startArrow=ERoneToMany;startSize=10;;endArrow=ERmandOne;endSize=10;;exitX=0.25;exitY=0;entryX=1;entryY=0.84;rounded=0;exitDx=0;exitDy=0;" edge="1" parent="1" source="oB86rz4Y4QlZCWIwaVJf-438" target="oB86rz4Y4QlZCWIwaVJf-313">
          <mxGeometry x="0.041" y="53" relative="1" as="geometry">
            <Array as="points">
              <mxPoint x="800" y="1310" />
            </Array>
            <mxPoint as="offset" />
          </mxGeometry>
        </mxCell>
        <mxCell id="oB86rz4Y4QlZCWIwaVJf-483" value="by_user" style="curved=1;startArrow=ERoneToMany;startSize=10;;endArrow=ERmandOne;endSize=10;;exitX=1;exitY=0.3;entryX=1;entryY=0.61;rounded=0;" edge="1" parent="1" source="oB86rz4Y4QlZCWIwaVJf-438" target="oB86rz4Y4QlZCWIwaVJf-270">
          <mxGeometry relative="1" as="geometry">
            <Array as="points">
              <mxPoint x="1370" y="1550" />
              <mxPoint x="1370" y="832" />
            </Array>
          </mxGeometry>
        </mxCell>
        <mxCell id="oB86rz4Y4QlZCWIwaVJf-484" value="records" style="curved=1;startArrow=ERoneToMany;startSize=10;;endArrow=ERmandOne;endSize=10;;exitX=0.27;exitY=1;entryX=0;entryY=0.13;rounded=0;" edge="1" parent="1" source="oB86rz4Y4QlZCWIwaVJf-438" target="oB86rz4Y4QlZCWIwaVJf-386">
          <mxGeometry relative="1" as="geometry">
            <Array as="points">
              <mxPoint x="839" y="1951" />
            </Array>
          </mxGeometry>
        </mxCell>
        <mxCell id="oB86rz4Y4QlZCWIwaVJf-485" value="triggers" style="curved=1;startArrow=ERoneToMany;startSize=10;;endArrow=ERzeroToOne;endSize=10;;exitX=0.77;exitY=1;entryX=0;entryY=0.4;rounded=0;" edge="1" parent="1" source="oB86rz4Y4QlZCWIwaVJf-438" target="oB86rz4Y4QlZCWIwaVJf-429">
          <mxGeometry relative="1" as="geometry">
            <Array as="points">
              <mxPoint x="1019" y="1951" />
            </Array>
          </mxGeometry>
        </mxCell>
        <mxCell id="oB86rz4Y4QlZCWIwaVJf-429" value="RemedialAction" style="shape=table;startSize=25;container=1;collapsible=0;childLayout=tableLayout;fixedRows=1;rowLines=1;fontStyle=1;align=center;resizeLast=1;" vertex="1" parent="1">
          <mxGeometry x="1770" y="2120" width="165" height="129" as="geometry" />
        </mxCell>
        <mxCell id="oB86rz4Y4QlZCWIwaVJf-430" style="shape=tableRow;horizontal=0;startSize=0;swimlaneHead=0;swimlaneBody=0;fillColor=none;collapsible=0;dropTarget=0;points=[[0,0.5],[1,0.5]];portConstraint=eastwest;top=0;left=0;right=0;bottom=0;" vertex="1" parent="oB86rz4Y4QlZCWIwaVJf-429">
          <mxGeometry y="25" width="165" height="52" as="geometry" />
        </mxCell>
        <mxCell id="oB86rz4Y4QlZCWIwaVJf-431" value="int" style="shape=partialRectangle;connectable=0;fillColor=none;top=0;left=0;bottom=0;right=0;align=left;spacingLeft=2;overflow=hidden;fontSize=11;" vertex="1" parent="oB86rz4Y4QlZCWIwaVJf-430">
          <mxGeometry width="36" height="52" as="geometry">
            <mxRectangle width="36" height="52" as="alternateBounds" />
          </mxGeometry>
        </mxCell>
        <mxCell id="oB86rz4Y4QlZCWIwaVJf-432" value="id" style="shape=partialRectangle;connectable=0;fillColor=none;top=0;left=0;bottom=0;right=0;align=left;spacingLeft=2;overflow=hidden;fontSize=11;" vertex="1" parent="oB86rz4Y4QlZCWIwaVJf-430">
          <mxGeometry x="36" width="107" height="52" as="geometry">
            <mxRectangle width="107" height="52" as="alternateBounds" />
          </mxGeometry>
        </mxCell>
        <mxCell id="oB86rz4Y4QlZCWIwaVJf-433" value="PK" style="shape=partialRectangle;connectable=0;fillColor=none;top=0;left=0;bottom=0;right=0;align=left;spacingLeft=2;overflow=hidden;fontSize=11;" vertex="1" parent="oB86rz4Y4QlZCWIwaVJf-430">
          <mxGeometry x="143" width="22" height="52" as="geometry">
            <mxRectangle width="22" height="52" as="alternateBounds" />
          </mxGeometry>
        </mxCell>
        <mxCell id="oB86rz4Y4QlZCWIwaVJf-434" style="shape=tableRow;horizontal=0;startSize=0;swimlaneHead=0;swimlaneBody=0;fillColor=none;collapsible=0;dropTarget=0;points=[[0,0.5],[1,0.5]];portConstraint=eastwest;top=0;left=0;right=0;bottom=0;" vertex="1" parent="oB86rz4Y4QlZCWIwaVJf-429">
          <mxGeometry y="77" width="165" height="52" as="geometry" />
        </mxCell>
        <mxCell id="oB86rz4Y4QlZCWIwaVJf-435" value="string" style="shape=partialRectangle;connectable=0;fillColor=none;top=0;left=0;bottom=0;right=0;align=left;spacingLeft=2;overflow=hidden;fontSize=11;" vertex="1" parent="oB86rz4Y4QlZCWIwaVJf-434">
          <mxGeometry width="36" height="52" as="geometry">
            <mxRectangle width="36" height="52" as="alternateBounds" />
          </mxGeometry>
        </mxCell>
        <mxCell id="oB86rz4Y4QlZCWIwaVJf-436" value="type" style="shape=partialRectangle;connectable=0;fillColor=none;top=0;left=0;bottom=0;right=0;align=left;spacingLeft=2;overflow=hidden;fontSize=11;" vertex="1" parent="oB86rz4Y4QlZCWIwaVJf-434">
          <mxGeometry x="36" width="107" height="52" as="geometry">
            <mxRectangle width="107" height="52" as="alternateBounds" />
          </mxGeometry>
        </mxCell>
        <mxCell id="oB86rz4Y4QlZCWIwaVJf-437" value="" style="shape=partialRectangle;connectable=0;fillColor=none;top=0;left=0;bottom=0;right=0;align=left;spacingLeft=2;overflow=hidden;fontSize=11;" vertex="1" parent="oB86rz4Y4QlZCWIwaVJf-434">
          <mxGeometry x="143" width="22" height="52" as="geometry">
            <mxRectangle width="22" height="52" as="alternateBounds" />
          </mxGeometry>
        </mxCell>
      </root>
    </mxGraphModel>
  </diagram>
</mxfile>
